<svg xmlns="http://www.w3.org/2000/svg" viewBox="0 0 523.67 240"><defs><style>.cls-1{fill:#45d6ad;}.cls-2{fill:#415464;}.cls-3{fill:#9f6cc7;}</style></defs><title>zinnosti</title><g id="Layer_2" data-name="Layer 2"><g id="Layer_1-2" data-name="Layer 1"><path class="cls-1" d="M261.36,90.92V75.73l-1,1h4.8l-1-1V94a1,1,0,0,0,1.93,0V75.73a1,1,0,0,0-1-1h-4.8a1,1,0,0,0-1,1V90.92a1,1,0,0,0,1.92,0Z"/><path class="cls-2" d="M334,100.29l4-4h-1.37l20.8,22.25,3,3.16a1,1,0,0,0,1.36,0L379.13,100l27.54-34.42,6.37-8h-1.36l18.84,15.07a1,1,0,0,0,1.17.15l21.4-14.24L487.4,35.73l7.87-5.24c1-.68.06-2.35-1-1.66L472.89,43.07,438.58,65.91l-7.86,5.24,1.16.15L413,56.22a1,1,0,0,0-1.36,0l-17.36,21.7-27.54,34.42-6.36,8h1.36L341,98.05l-3-3.16a1,1,0,0,0-1.37,0l-4,4a1,1,0,0,0,1.37,1.37Z"/><path class="cls-2" d="M202.13,109.52l24.69-26.26L234,75.67c1.36-1.45,2.93-2.84,4.15-4.41.07-.09.4-.32.4-.43s-.14-1.43-.63-.12c0,.05.51.49.55.53l3.26,3.1,30.48,29,27.62,26.31a16.5,16.5,0,0,0,1.66,1.58c1.68,1.2,3.37-1.42,4.41-2.47L321,113.48l1.2-1.21c.87-.88-.49-2.24-1.36-1.36l-12.71,12.85-3.72,3.76c-.56.57-1.78,1.38-2.1,2.13,0,0-.21.16-.2.2s.67.16.71.05-.15-.13-.16-.15c-.08-.26-.69-.66-.88-.84l-26.3-25L244.08,74l-3.81-3.64c-.74-.7-1.54-1.76-2.68-1.19-1,.48-1.8,1.77-2.53,2.54l-5.83,6.2L201.38,107.5l-.61.66c-.85.9.51,2.26,1.36,1.36Z"/><path class="cls-2" d="M15,229.08l30.44-33.39L49.69,191H48.33l28.41,29.36,4,4.14a1,1,0,0,0,1.51-.19l23.11-36.61,3.27-5.18-1.51.19,12.06,13.57a1,1,0,0,0,1.36,0l21.08-22.41,33.58-35.73,7.71-8.2c.85-.9-.51-2.26-1.36-1.36L160.49,151,126.9,186.73l-7.71,8.2h1.36l-12.06-13.57a1,1,0,0,0-1.51.19L83.87,218.16l-3.27,5.19,1.51-.2L53.7,193.79l-4-4.14a1,1,0,0,0-1.36,0L17.9,223l-4.26,4.68c-.83.91.53,2.28,1.36,1.36Z"/><path class="cls-2" d="M324,55.62V79a1,1,0,0,0,1.93,0V55.62a1,1,0,0,0-1.93,0Z"/><path class="cls-1" d="M415.4,232.49c-7.55-4.91-15.31-9.62-22.56-15a221.05,221.05,0,0,1-21.38-18.12c-3.33-3.2-6.58-6.51-9.58-10a39.55,39.55,0,0,1-6.18-8.93c-.87-1.91-1.42-3.9.31-5.45,1.46-1.31,2.63-.64,3.92.57,2.87,2.7,5.21,6,7.84,8.92A117.77,117.77,0,0,0,383,198.64c1,.74,2.33-.56,1.36-1.37a141.68,141.68,0,0,1-18.7-18.36,29.36,29.36,0,0,1-4.17-6.23c-.55-1.2-1.12-2.7-.2-3.84,2.39-2.92,5.87,1.74,7.42,3.38a167,167,0,0,0,21.21,19.54c.86.65,2-.84,1.16-1.51A126.11,126.11,0,0,1,372,172.62c-1.62-1.91-6.44-7.11-4.25-9.9,2.72-3.48,6.06.43,8,2.56,6.42,7,12.66,13.91,20.08,19.92.95.76,2.32-.56,1.36-1.37-2.93-2.46-5.76-5.07-8.5-7.73-4.48-4.34-9.28-9-12.26-14.56-.72-1.35-1.93-3.7-.84-5.18s3.35-.63,4.67.18a35.87,35.87,0,0,1,6.95,6.13c2.86,3,5.58,6.05,8.38,9.07,6.66,7.23,13.8,14.7,22.74,19.1a1,1,0,0,0,1-1.66,82.12,82.12,0,0,1-7.15-5.58c-3.17-2.73-7.4-6.19-8.68-10.34-1.06-3.42,2.67-4.88,5.42-4,4.33,1.44,8,5.33,11.39,8.27,7.08,6.21,14.14,12.39,21.66,18.08,1,.74,2-.93,1-1.67-7.57-5.72-14.66-12-21.8-18.24-3.52-3.09-7.64-7.35-12.36-8.49-3.07-.74-7.23.85-7.43,4.43-.24,4.42,4.39,8.61,7.29,11.33a83.24,83.24,0,0,0,9.72,7.83l1-1.66c-8.72-4.29-15.67-11.57-22.18-18.62-3-3.23-5.9-6.54-9-9.7a34,34,0,0,0-7.25-6.18c-1.78-1-3.95-1.62-5.8-.43s-2.08,3.13-1.64,5c.6,2.63,2.29,5,3.88,7.16a82.37,82.37,0,0,0,6.88,7.92,158.7,158.7,0,0,0,11.61,10.84l1.36-1.37c-7.32-5.92-13.53-12.71-19.84-19.66-2.39-2.63-5.78-6.45-9.57-4s-2.29,6.6-.19,9.81c3.32,5.06,7.89,9.34,12.35,13.37,3.16,2.86,6.41,5.63,9.78,8.24l1.17-1.51c-7.65-5.72-14.28-12.33-20.82-19.24-2.13-2.25-5.6-6.56-9.07-4.29-3.72,2.42-1.62,6.72.27,9.64,3.34,5.12,7.81,9.57,12.19,13.8,3.09,3,6.26,5.87,9.54,8.63l1.36-1.37a116.94,116.94,0,0,1-14.7-13.62c-2.68-3-5.08-6.21-7.9-9-1.35-1.36-3.12-2.83-5.17-2.19a5.37,5.37,0,0,0-3.64,4.71c-.06,2.8,1.67,5.59,3.17,7.82a76.29,76.29,0,0,0,8.36,10.12,212.17,212.17,0,0,0,23.29,21c8.48,6.64,17.68,12.28,26.7,18.13,1,.68,2-1,1-1.66Z"/><path class="cls-1" d="M57.81,103.34c-4.25-3.46-8.9-6.15-12.83-10-.89-.87-2.25.49-1.36,1.36,3.94,3.87,8.58,6.56,12.83,10,.95.77,2.33-.58,1.36-1.36Z"/><path class="cls-1" d="M70.64,67c3.62,2.89,7.44,5.46,11.19,8.17,1,.73,2-.94,1-1.66-3.61-2.62-7.31-5.08-10.8-7.87-1-.76-2.33.59-1.36,1.36Z"/><path class="cls-2" d="M265.32,155.27l2.09,23,3.33,36.65.78,8.51,1.64-.68-10.09-10.09a1,1,0,0,0-1.36,0L250.23,224.1l1.65.68.25-23.45.39-37.17.1-8.6a1,1,0,0,0-1.93,0L250.44,179l-.4,37.17-.09,8.61a1,1,0,0,0,1.65.68L263.07,214h-1.36l10.09,10.09a1,1,0,0,0,1.64-.68l-2.08-22.95L268,163.78l-.77-8.51c-.11-1.22-2-1.23-1.93,0Z"/><path class="cls-2" d="M252.81,137.41l.06-5.42-1,1h12.27l-1-1,.48,5.27c.11,1.23,2,1.24,1.92,0l-.48-5.27a1,1,0,0,0-1-1H251.9a1,1,0,0,0-1,1l-.06,5.42a1,1,0,0,0,1.93,0Z"/><path class="cls-1" d="M215.28,141.28V136l-1,1H224.6l-1-1V141a1,1,0,0,0,1.93,0V136a1,1,0,0,0-1-1H214.32a1,1,0,0,0-1,1v5.33a1,1,0,0,0,1.93,0Z"/><path class="cls-1" d="M223.64,158.8v8l1.64-.68L222.16,163c-.63-.63-1.68-2.16-2.7-2.16s-2.08,1.54-2.7,2.16l-3.13,3.12,1.65.68v-8.27a1,1,0,0,0-1.93,0v8.27a1,1,0,0,0,1.65.68l2.31-2.31,1.77-1.77c.33-.33,1.16-.8.38-.8s0,.47.38.8l1.63,1.63,2.45,2.45a1,1,0,0,0,1.65-.68v-8a1,1,0,0,0-1.93,0Z"/><path class="cls-1" d="M288.87,140.81v-4.47l-1,1h12.27l-1-1v4.47a1,1,0,0,0,1.93,0v-4.47a1,1,0,0,0-1-1H287.91a1,1,0,0,0-1,1v4.47a1,1,0,0,0,1.92,0Z"/><path class="cls-1" d="M299.21,152.47v9.58l1.65-.68-6.14-5.14a1,1,0,0,0-1.36,0l-6.13,5.14,1.64.68v-9.81a1,1,0,0,0-1.92,0v9.81a1,1,0,0,0,1.64.69l6.13-5.15h-1.36l6.13,5.15a1,1,0,0,0,1.65-.69v-9.58a1,1,0,0,0-1.93,0Z"/><path class="cls-1" d="M402.43,98V41.67a1,1,0,0,0-1.93,0V98a1,1,0,0,0,1.93,0Z"/><path class="cls-1" d="M415.64,116.41H387.29l1,1c.08-7.54,4.11-18.37,13.21-18.37s13.12,10.83,13.2,18.37a1,1,0,0,0,1.93,0c-.1-8.64-4.92-20.3-15.13-20.3s-15,11.66-15.14,20.3a1,1,0,0,0,1,1h28.35A1,1,0,0,0,415.64,116.41Z"/><path class="cls-1" d="M398.63,116.88a12.25,12.25,0,0,0-2.17,5.12c-.35,2.82,1.82,4.21,4.4,4.41,1.92.16,4.52-.12,5.49-2,1.2-2.38-.37-5.42-1.5-7.49-.6-1.08-2.26-.11-1.67,1,.77,1.39,2.21,3.81,1.52,5.51-.53,1.29-2.71,1.23-3.84,1.12-.87-.09-2.14-.33-2.46-1.27a3.83,3.83,0,0,1,.31-2.33,13.68,13.68,0,0,1,1.59-3c.7-1-1-2-1.67-1Z"/><path class="cls-3" d="M413.44,147.57a30.27,30.27,0,0,1-28.91-7c-.91-.85-2.27.51-1.36,1.36A32.25,32.25,0,0,0,414,149.43a1,1,0,0,0-.51-1.86Z"/><path class="cls-3" d="M405,140.79A27.83,27.83,0,0,1,381.82,128c-.67-1-2.33-.07-1.66,1A29.85,29.85,0,0,0,405,142.72a1,1,0,0,0,0-1.93Z"/><path class="cls-2" d="M273.24,146.52c-.15,4.86-5.35,7.54-9.5,8.49-5.12,1.19-11.27.6-15.64-2.53-3.76-2.68-4.85-7.23-1.43-10.7,3.67-3.72,9.69-4.7,14.69-4.16,4.78.52,11.7,3.18,11.88,8.9,0,1.24,2,1.25,1.93,0-.18-5.66-5.66-9.06-10.63-10.28-6.05-1.49-13.45-.7-18.38,3.39-3.85,3.21-4.8,8.38-1.46,12.34,4.06,4.82,11.45,6.09,17.39,5.29,5.7-.76,12.87-4.12,13.08-10.74C275.21,145.28,273.28,145.29,273.24,146.52Z"/><path class="cls-1" d="M228.87,149.91a9.2,9.2,0,1,1-9.19-9.2,9.31,9.31,0,0,1,9.19,9.2,1,1,0,0,0,1.93,0,11.12,11.12,0,0,0-19.66-7.12c-6.49,7.77.43,19.75,10.39,18.08a11.27,11.27,0,0,0,9.27-11A1,1,0,0,0,228.87,149.91Z"/><path class="cls-1" d="M301.46,146.52a7.42,7.42,0,1,1-7.68-7.41,7.51,7.51,0,0,1,7.68,7.41c0,1.24,2,1.25,1.93,0a9.35,9.35,0,1,0-9.35,9.35,9.47,9.47,0,0,0,9.35-9.35C303.43,145.28,301.5,145.29,301.46,146.52Z"/><path class="cls-2" d="M221.14,183H203.27l1,1c-.51-4,.7-8.86,4.58-10.73,2.71-1.3,6-.91,9-.91h33.69a1,1,0,0,0,0-1.92h-34c-3.1,0-6.36-.29-9.25,1a10,10,0,0,0-5.41,6.69,15.44,15.44,0,0,0-.47,5.86,1,1,0,0,0,1,1h17.87a1,1,0,0,0,0-1.93Z"/><path class="cls-2" d="M211.11,194.4c6.23,0,10.82-4.92,11.42-10.93s-2.26-13-9.15-13.09a1,1,0,0,0,0,1.92c5.78,0,7.75,6.37,7.23,11.17a9.74,9.74,0,0,1-9.5,9,1,1,0,0,0,0,1.93Z"/><path class="cls-2" d="M220.53,42.07H202.66a1,1,0,0,0-1,1c-.55,4.36.89,9.52,4.76,12,3,1.89,6.62,1.6,10,1.6H233.8a1,1,0,0,0,0-1.92H217.75c-3.15,0-6.82.48-9.71-1-3.77-1.92-4.92-6.73-4.42-10.65l-1,1h17.87a1,1,0,0,0,0-1.93Z"/><path class="cls-1" d="M361,172.12c-9-6-16.77-14.9-16.46-26.28a26.17,26.17,0,0,1,7.88-17.8l-1.16.15,22.16,16.94-.2-1.52-4.38,4.25-2.8,2.72c-.38.37-1.13.87-1.28,1.43-.3,1.1,1,2.8,1.5,3.6a27.45,27.45,0,0,0,9,7.71,1,1,0,0,0,1-1.66,25.85,25.85,0,0,1-8.17-6.89,7.57,7.57,0,0,1-1.39-2.76l-.25.94,8.22-8a1,1,0,0,0-.2-1.52l-22.16-16.93a1,1,0,0,0-1.17.15,28.08,28.08,0,0,0-8.46,19.74c0,11.85,8,21.14,17.42,27.36,1,.69,2-1,1-1.66Z"/><path class="cls-1" d="M414.1,172c5.14-.72,10.91-2.23,15-5.58a1,1,0,0,0,.15-1.16l-6.08-11.18-.58,1.41,27.25-9.06-1.18-.67c2.79,6.65,4.86,15,3.07,22.18-1,4.21-4.07,7.22-7.24,10a35.28,35.28,0,0,1-13.32,7.24,1,1,0,0,0,.52,1.86,37.5,37.5,0,0,0,13.76-7.39c3.3-2.82,6.55-6,7.88-10.25,2.38-7.65.21-17-2.82-24.15a1,1,0,0,0-1.18-.67l-27.25,9.06a1,1,0,0,0-.58,1.41l6.08,11.18.16-1.17c-3.51,2.84-9.46,4.42-14.19,5.08-1.22.17-.7,2,.51,1.86Z"/><path class="cls-1" d="M394.7,170.61a53.08,53.08,0,0,0,7,1.28c1.23.12,1.22-1.8,0-1.93a49,49,0,0,1-6.46-1.21c-1.2-.28-1.71,1.57-.51,1.86Z"/><path class="cls-1" d="M190.48,155.59a72.34,72.34,0,0,0-18.72,6.24c-12.6,5.9-23.77,15.06-30.86,27.14a67.75,67.75,0,0,0-8.74,28.9,1,1,0,0,0,1,1,41.47,41.47,0,0,0,10.55-.61A74.21,74.21,0,0,0,168.88,209a1,1,0,0,0-1-1.66,72.59,72.59,0,0,1-24.75,9,39.28,39.28,0,0,1-10,.54l1,1c1.38-16.77,8.55-32.2,21.32-43.27A78.27,78.27,0,0,1,184.5,159a53.83,53.83,0,0,1,6.49-1.58c1.22-.2.7-2.06-.51-1.86Z"/><path class="cls-1" d="M190.25,178.77c-13.12,6.56-23.11,20.65-23.45,35.41-.17,7.13,1.74,14.06,4.59,20.53a1,1,0,0,0,1.09.44,31.09,31.09,0,0,0,8.43-4.11,69.66,69.66,0,0,0,18.22-17.69,109.12,109.12,0,0,0,11.22-19.43c.51-1.12-1.15-2.1-1.67-1-7.07,15.47-17.92,32.08-34,39.33a18.47,18.47,0,0,1-2.68,1l1.09.44c-4.66-10.57-6.14-22.52-1.17-33.27A44.36,44.36,0,0,1,187.07,183a36.55,36.55,0,0,1,4.15-2.54c1.11-.55.13-2.21-1-1.66Z"/><path class="cls-1" d="M192.9,192.75a83.66,83.66,0,0,0-8.76,11.67A96.08,96.08,0,0,0,171.29,234c-.28,1.2,1.57,1.72,1.86.51a94.25,94.25,0,0,1,12.66-29.08,79.36,79.36,0,0,1,8.45-11.28c.84-.91-.52-2.28-1.36-1.37Z"/><path class="cls-1" d="M190.48,172.6a66,66,0,0,0-12.16,5.06,125.87,125.87,0,0,0-28,19.74,152.65,152.65,0,0,0-18,20c-.75,1,.92,2,1.67,1,13.66-18,31.78-34.23,53.07-42.52a40.28,40.28,0,0,1,4-1.37,1,1,0,0,0-.51-1.86Z"/><path class="cls-1" d="M294.3,105.27c2.55-.94,5.55-2.1,7.47-4.1a2.64,2.64,0,0,0,.74-3.15,2.06,2.06,0,0,0-1.94-1.09c-1.86.09-3.49,2-4.6,3.32a35.88,35.88,0,0,0-2.76,3.61c-.69,1,1,2,1.66,1a22.36,22.36,0,0,1,4.54-5.29c.19-.15,1-.83,1.26-.69.8.36-1.51,2-1.8,2.13a27.54,27.54,0,0,1-5.08,2.43C292.63,103.84,293.13,105.7,294.3,105.27Z"/><path class="cls-1" d="M335.25,77.67a1,1,0,0,0,0-1.92,1,1,0,0,0,0,1.92Z"/><path class="cls-1" d="M331.46,75.05a28.67,28.67,0,0,1,1.79-11.86c1.92-4.82,7-9.37,11.72-11.21l-1.09-1.41A49.92,49.92,0,0,0,340,57.74c-1.33,3-2.86,6.9-1.43,10.16.43,1,1.69.33,1.79-.48-.06.44.13-.68.18-.89a24.24,24.24,0,0,1,.75-2.65A28.17,28.17,0,0,1,346,55.41c3.67-4.58,8.62-8.5,13.19-12.14,5.45-4.36,11.36-8.44,17.84-11.1,6.69-2.74,13.86-2.58,20.9-3.79a78.46,78.46,0,0,0,12.73-3.08l-1.22-.93c0,5.92-4,11.18-7.79,15.38A118,118,0,0,1,384.2,54.88c-6.2,4.6-12.62,8.9-19,13.26-6.67,4.56-13.25,9.27-21.39,10.68-3.37.59-8.1.65-10.93-.76-1.11-.55-2.08,1.11-1,1.66,2.73,1.36,6.18,1.54,9.15,1.35,8.38-.53,15.61-4.7,22.35-9.37,13.24-9.16,27.45-17.76,38.6-29.53,4.55-4.8,9.3-10.86,9.34-17.8a1,1,0,0,0-1.22-.93,75.08,75.08,0,0,1-11.05,2.78c-7.36,1.39-15,1.12-22.07,3.89A73.37,73.37,0,0,0,359.1,40.88C354.22,44.68,349,48.8,345,53.56a28,28,0,0,0-6.56,13.86l1.8-.49c-1.27-2.91.89-7.16,2.13-9.74a51.24,51.24,0,0,1,3.16-5.65c.43-.66-.3-1.72-1.09-1.41-5.08,2-10.31,6.45-12.58,11.41a29.33,29.33,0,0,0-2.35,13.51c.07,1.24,2,1.24,1.93,0Z"/><path class="cls-2" d="M157.08,77.2c-5.36,1-12.78,3.82-14.17,9.74a1,1,0,0,0,.25.94l1.74,1.6a1,1,0,0,0,1.65-.68c-.1-4.81,7.3-7.13,11-7.89l-1.08-.44a11.39,11.39,0,0,0,5.29,4.79c6.09,2.92,13.26,1.39,19.28-.86a1,1,0,0,0,.42-1.61,23.47,23.47,0,0,0-7.59-6,17.58,17.58,0,0,0-17.06.48,1,1,0,0,0,1,1.66,15.78,15.78,0,0,1,16.18.09,22.15,22.15,0,0,1,6.14,5.1l.43-1.61c-5.56,2.08-12.43,3.77-18,.93a9.62,9.62,0,0,1-4.35-4,1,1,0,0,0-1.09-.45c-4.57.93-12.58,3.75-12.46,9.75l1.65-.68-1.75-1.6.25.93c1.22-5.2,8.16-7.51,12.82-8.39C158.81,78.83,158.29,77,157.08,77.2Z"/><path class="cls-1" d="M55.75,107.09q12.41-14.41,24.9-28.78c1.7-2,3.39-3.92,5.15-5.81H84.44A47.83,47.83,0,0,0,94.23,79L94,77.45a353,353,0,0,0-24.65,27.23,55.19,55.19,0,0,0-5.8,8.28l1.09-.45c-3.49-1.28-6.52-4.05-8.92-6.78-.82-.93-2.18.43-1.36,1.36,2.63,3,6,5.88,9.76,7.28a1,1,0,0,0,1.09-.44c3.16-5.93,8-11.09,12.43-16.1,4.72-5.36,9.6-10.59,14.54-15.74l3.18-3.28a1,1,0,0,0-.19-1.51,46.3,46.3,0,0,1-9.4-6.16,1,1,0,0,0-1.36,0C75.2,81.07,66.56,91.6,57.71,101.87l-3.32,3.86C53.58,106.67,54.94,108,55.75,107.09Z"/><path class="cls-1" d="M87.56,79.41a1.5,1.5,0,0,1-3,0,1.5,1.5,0,0,1,3,0c.06,1.24,2,1.24,1.92,0a3.43,3.43,0,1,0-3.56,3.42,3.48,3.48,0,0,0,3.56-3.42C89.55,78.17,87.62,78.18,87.56,79.41Z"/><path class="cls-2" d="M180.16,118.24a6.54,6.54,0,1,1-6.81-6.53,6.63,6.63,0,0,1,6.81,6.53c0,1.23,2,1.24,1.92,0a8.47,8.47,0,1,0-8.46,8.46,8.58,8.58,0,0,0,8.46-8.46C182.13,117,180.2,117,180.16,118.24Z"/><path class="cls-2" d="M224.64,221.18a6.54,6.54,0,1,1-6.8-6.53,6.62,6.62,0,0,1,6.8,6.53c.05,1.24,2,1.24,1.93,0a8.47,8.47,0,1,0-8.46,8.47,8.58,8.58,0,0,0,8.46-8.47C226.61,219.94,224.69,219.94,224.64,221.18Z"/><path class="cls-2" d="M370.73,90.92a6.54,6.54,0,1,1-6.81-6.53,6.63,6.63,0,0,1,6.81,6.53c0,1.24,2,1.24,1.92,0a8.47,8.47,0,1,0-8.46,8.47,8.57,8.57,0,0,0,8.46-8.47C372.7,89.68,370.77,89.68,370.73,90.92Z"/><path class="cls-2" d="M474.91,77.66a6.54,6.54,0,1,1-6.81-6.53,6.63,6.63,0,0,1,6.81,6.53c0,1.24,2,1.24,1.92,0a8.47,8.47,0,1,0-8.46,8.47,8.57,8.57,0,0,0,8.46-8.47C476.88,76.42,475,76.42,474.91,77.66Z"/><path class="cls-1" d="M74.31,166.57c-1,1.28-2.69,2.3-2.72,4.05a17.67,17.67,0,0,0,.77,4.44c.64,2.57,1.42,5.11,2.27,7.62l1.61-.94c-1.54-1.29-3.12-2.54-4.72-3.75s-4-3.34-6.19-3.65a2.51,2.51,0,0,0-1.12.13c-1.35.37-2.65,1.1-4,1.5a32.13,32.13,0,0,1-21.55-1.19c-7.4-3.19-13.55-9.57-15-17.66S25.88,141,32.22,136c8.58-6.83,20.63-8,30.71-4.08,1.15.44,1.65-1.42.51-1.86a33.81,33.81,0,0,0-28.57,1.85c-7.06,4-12.43,10.92-13.35,19.11s2.87,16.05,9.14,21.17a33,33,0,0,0,25.84,6.63,33.4,33.4,0,0,0,4.53-1c.73-.23,1.44-.48,2.15-.75a8.28,8.28,0,0,1,1.75-.77c1.09,0,2.57,1.28,3.41,1.85a79.37,79.37,0,0,1,6.53,5c.68.56,1.95,0,1.61-.94q-1-3-1.86-6.11a34.61,34.61,0,0,1-1-4.26,3.56,3.56,0,0,1-.11-1.41c.29-.78,1.62-1.79,2.15-2.45.77-1-.59-2.34-1.36-1.37Z"/><path class="cls-1" d="M71.35,124.22A28.93,28.93,0,0,0,63.78,135a23.49,23.49,0,0,0-1.49,6.6,22,22,0,0,0,0,3.54,14.26,14.26,0,0,1,.29,2.58,8.21,8.21,0,0,1-1.52,2.74c-.82,1.23-1.69,2.42-2.58,3.6-1.18,1.56-2.39,3.1-3.63,4.6-.55.67-.06,2,.94,1.61a51.14,51.14,0,0,1,9.6-2.85,3.07,3.07,0,0,1,1-.1c.56.16.08,0,.52.39,1,.93,1.78,2.32,2.75,3.33a34.88,34.88,0,0,0,7.06,5.63c11.35,6.93,26.2,8.07,38.69,3.71a37,37,0,0,0,16.84-11.49c.77-1-.59-2.33-1.36-1.37-8.43,10.56-22.88,14.62-35.95,13.21A41.34,41.34,0,0,1,76.12,164a31.07,31.07,0,0,1-6.58-6c-1.24-1.52-1.61-2.7-3.7-2.53-3.58.31-7.22,1.76-10.57,3l.94,1.61c2.78-3.37,6.14-7,7.93-11,.56-1.28.23-2.13.1-3.53a21.62,21.62,0,0,1,.58-7.43,26.07,26.07,0,0,1,7.89-12.51c.91-.84-.45-2.2-1.36-1.36Z"/><path class="cls-1" d="M326.06,164.22a19,19,0,1,1-15.36,29.56c-.69-1-2.36-.05-1.66,1,6.87,10.09,21,12.56,30.66,4.84a21,21,0,0,0-13.64-37.3,1,1,0,0,0,0,1.93Z"/><path class="cls-1" d="M354,181.09c0,4.57-.08,9-1.57,13.42a28.9,28.9,0,0,1-54.88-.54c-.39-1.17-2.25-.67-1.86.51A30.83,30.83,0,0,0,353,198.11c2.51-5.48,2.87-11.1,2.86-17a1,1,0,0,0-1.92,0Z"/><path class="cls-1" d="M362.7,192.53a39.35,39.35,0,0,1-77.24,1.5c-.27-1.21-2.12-.7-1.86.51a41.32,41.32,0,0,0,69.75,20.29A41.13,41.13,0,0,0,364.55,193c.22-1.21-1.64-1.73-1.85-.51Z"/><path class="cls-1" d="M308.78,33.47A29.31,29.31,0,0,1,336,26.15a31.55,31.55,0,0,1,20.4,16.74c.54,1.11,2.2.13,1.66-1A33.33,33.33,0,0,0,336,24.16a31.28,31.28,0,0,0-28.53,8c-.9.85.46,2.21,1.36,1.36Z"/><path class="cls-1" d="M297.38,33.79a39.65,39.65,0,0,1,6.72-8h-1.37l1.9,2.13a1,1,0,0,0,1.36,0,41.49,41.49,0,0,1,4.21-3.26,1,1,0,0,0,.35-1.31l-1.32-2.6-.34,1.31a41.26,41.26,0,0,1,8.28-4.12l-1.08-.45,1.27,2.69a1,1,0,0,0,1.09.44A40.87,40.87,0,0,1,325.16,19a1,1,0,0,0,.71-.93l-.14-3-1,1a42.6,42.6,0,0,1,9.1-.19l-1-1,.36,3.1a1,1,0,0,0,1,1,38.8,38.8,0,0,1,6.82,1.5,1,1,0,0,0,1.09-.44l1.62-2.69-1.09.44a41,41,0,0,1,7.81,3.7l-.35-1.32L348.88,23a1,1,0,0,0,.34,1.32,40.53,40.53,0,0,1,4.63,3.51,1,1,0,0,0,1.36,0l2.48-1.92h-1.36a40.85,40.85,0,0,1,6.73,8.15l.15-1.17-2.14,1.89a1,1,0,0,0-.15,1.16c.59,1,1.16,2,1.66,3.07s2.2.14,1.66-1S363.17,36,362.58,35l-.15,1.17,2.14-1.89a1,1,0,0,0,.16-1.17,43.33,43.33,0,0,0-7-8.53,1,1,0,0,0-1.36,0l-2.48,1.92h1.36a43.32,43.32,0,0,0-5-3.81l.35,1.32,1.26-2.86a1,1,0,0,0-.35-1.32,43.35,43.35,0,0,0-8.27-3.89,1,1,0,0,0-1.08.44l-1.63,2.7,1.09-.45A42.52,42.52,0,0,0,334.23,17l1,1-.36-3.1a1,1,0,0,0-1-1,43.26,43.26,0,0,0-9.1.19,1,1,0,0,0-1,1l.14,3,.71-.92a39.62,39.62,0,0,0-6.71,1.57l1.09.44-1.28-2.68a1,1,0,0,0-1.09-.44,43.08,43.08,0,0,0-8.74,4.32,1,1,0,0,0-.35,1.32l1.31,2.6.35-1.32a44.09,44.09,0,0,0-4.6,3.56H306l-1.89-2.14a1,1,0,0,0-1.37,0,41.84,41.84,0,0,0-7,8.41c-.67,1,1,2,1.66,1Z"/><path class="cls-1" d="M190.13,80.51c-1.65.71-4.46.29-6.35-.72l.48.83V74.87a1,1,0,0,0-1-1c-.22,0-2.06-.29-1.85-1.05.13-.46,1.56-.65,2-.69a1,1,0,0,0,0-1.93c-.32,0-1.65-.36-1.92-1.11-.41-1.16,1.17-1.64,1.64-1.69,1-.11,1.4-1.65.25-1.89-.55-.12-2.12-.5-2-1.33.11-.55,1.51-.8,2-.87a1,1,0,0,0,.71-.93l.08-6.75a1,1,0,0,0-.7-.93c-9.83-2.16-16.4-12-13.5-21.9a17.33,17.33,0,0,1,33.32.36,1,1,0,0,0,1.86-.51c-3.14-10.85-15.09-17-25.71-12.79a19.32,19.32,0,0,0-10.3,25.85A20,20,0,0,0,183,56.58l-.7-.92-.08,6.75.7-.93c-1.48.24-3.42,1.13-3.42,2.89s1.95,2.71,3.42,3l.26-1.89c-1.87.2-3.82,1.38-3.67,3.5s2.16,3,3.95,3.16V70.23c-1.56.15-3.82.75-3.95,2.64s2.23,2.77,3.83,3l-1-1v5.75a1,1,0,0,0,.48.84,9.72,9.72,0,0,0,8.29.72c1.14-.48.16-2.14-1-1.67Z"/><path class="cls-3" d="M167.63,59.16l-5.28,6.5c-.77,1,.58,2.33,1.36,1.36l5.28-6.5c.77-1-.58-2.32-1.36-1.36Z"/><path class="cls-3" d="M160.43,49.1l-7.74,3.22c-1.13.46-.63,2.33.52,1.85L160.94,51c1.13-.47.63-2.33-.51-1.86Z"/><path class="cls-3" d="M161.15,32.19,153,30.31c-1.2-.28-1.72,1.58-.51,1.85l8.16,1.89c1.21.28,1.72-1.58.51-1.86Z"/><path class="cls-3" d="M167.54,19.52,162.28,13c-.78-1-2.13.41-1.36,1.36l5.26,6.52c.78,1,2.13-.41,1.36-1.36Z"/><path class="cls-3" d="M179.29,15l-2.18-8.08a1,1,0,0,0-1.86.51l2.19,8.09a1,1,0,0,0,1.85-.52Z"/><path class="cls-1" d="M135.9,21.93v57.5a1,1,0,0,0,1.93,0V21.93a1,1,0,0,0-1.93,0Z"/><path class="cls-1" d="M117.89,43.59v8l1-1H84.16L85,52.12l5.18-8a1,1,0,0,0,0-1L85,34.48l-.83,1.45H108.5a1,1,0,0,0,0-1.93H84.16a1,1,0,0,0-.83,1.45l5.17,8.63v-1l-5.17,8a1,1,0,0,0,.83,1.45h34.69a1,1,0,0,0,1-1v-8a1,1,0,0,0-1.92,0Z"/><path class="cls-1" d="M136.1,42.34H108.5l1,1V27.11l-1,1h27.6a1,1,0,0,0,0-1.92H108.5a1,1,0,0,0-1,1V43.3a1,1,0,0,0,1,1h27.6a1,1,0,0,0,0-1.93Z"/><path class="cls-2" d="M71.32,55.85a13.55,13.55,0,0,0-7.08,2.93,10.89,10.89,0,0,0-3.57,5.4c-.7,2.39-1.14,4.25-3.63,5.3-3.48,1.46-7,1.74-7.92,6-.49,2.18-.65,4.62-1.73,6.61s-3,2.66-5,3.3c-5.29,1.74-9.21,5.11-10.18,10.79-.21,1.22,1.65,1.74,1.86.52A11.59,11.59,0,0,1,36.63,91c2-2.26,4.53-3.06,7.24-4a9,9,0,0,0,6.27-6.91c.51-2,.44-4.9,2-6.45,1.24-1.23,3.14-1.48,4.72-2a8.11,8.11,0,0,0,4-2.6c1.41-1.85,1.34-4.25,2.47-6.24a11,11,0,0,1,8-5c1.22-.12,1.24-2.05,0-1.93Z"/><path class="cls-1" d="M71.32,65.38a6.14,6.14,0,0,0-5.47,2.29c-1,1.47-1,3.21-1.19,4.94-.13,1.3-.22,2.19-1.56,2.6-3,.9-6.89.36-7.75,4.24-.53,2.39,1.07,5.88-.79,7.86-1,1.07-2.65,1.09-4,1.53a16.64,16.64,0,0,0-3.29,1.59,20.7,20.7,0,0,0-3.7,2.89c-.89.87.47,2.23,1.36,1.36a18.36,18.36,0,0,1,5-3.53c2.13-1,4.8-.89,6.3-3a7.35,7.35,0,0,0,1-4.84c-.08-1.49-.62-3.43.47-4.68,1.42-1.63,4.34-1.05,6.25-1.74a3.48,3.48,0,0,0,2.35-2.74c.43-2-.15-4.58,1.59-6a4.73,4.73,0,0,1,3.35-.88c1.24.11,1.23-1.82,0-1.93Z"/><path class="cls-1" d="M441.46,194.56a10.38,10.38,0,0,0-.48,4.91c.14,1.22,1,2.76.46,3.95s-1.85,1.57-2.88,1.83c-3.55.92-8.66-1.27-10.32,3.36-1,2.81,1.72,8.58-1.85,10.08-3.06,1.29-7.82-1.08-10.12,2.26-2.43,3.52,2.5,8.88-1.84,11.54-1.06.64-.09,2.31,1,1.66a5.42,5.42,0,0,0,2.7-3.72c.44-2.26-.47-4.34-.59-6.56-.26-4.62,6.88-2.33,9.57-3.4,3.56-1.4,3.13-5.41,2.79-8.51-.27-2.55.63-4.59,3.45-4.67,2.47-.08,4.68.39,7.05-.61,1.8-.77,3.28-2.27,3.17-4.34-.08-1.54-.76-2.94-.72-4.53a8,8,0,0,1,.5-2.74c.44-1.16-1.42-1.66-1.86-.51Z"/><path class="cls-2" d="M414.66,239.65c2.55.53,5.81.63,8-.94,3.77-2.65.93-8.63,4.86-11.35,3.14-2.17,9.24-1.38,10.27-6,.26-1.2,0-2.43.22-3.64a6.45,6.45,0,0,1,2.66-4.07c2.15-1.51,4.88-.76,7.07-2.28a7.31,7.31,0,0,0,2.8-6.84c-.22-2.37-.11-5.07,1.67-6.9.86-.89-.5-2.25-1.37-1.36a8.68,8.68,0,0,0-1.94,3.53c-.83,2.77.53,5.9-.9,8.47s-3.93,2-6.32,2.74a8.27,8.27,0,0,0-5.68,8.12,4.51,4.51,0,0,1-.58,2.93c-1.35,1.7-4.51,1.91-6.42,2.54-4.32,1.44-5.57,4.75-6.07,9-.16,1.29-.13,2.6-1.22,3.49a5.17,5.17,0,0,1-2.77,1,12.08,12.08,0,0,1-3.79-.19c-1.21-.25-1.72,1.61-.51,1.86Z"/><path class="cls-3" d="M479.24,162.57l19.56,5.17a1,1,0,0,0,.51-1.86l-19.56-5.17a1,1,0,0,0-.51,1.86Z"/><path class="cls-3" d="M475.19,173.36l19.34,6.74c1.17.41,1.67-1.45.51-1.85l-19.33-6.75c-1.18-.41-1.68,1.45-.52,1.86Z"/><path class="cls-3" d="M470.69,184.08l18.1,9.33c1.1.57,2.07-1.09,1-1.66l-18.1-9.33c-1.1-.57-2.07,1.09-1,1.66Z"/><path class="cls-1" d="M425.5,94.36c0-3,1.74-6,4.75-6.77,1.8-.45,4.75-.55,5.05,1.82a5,5,0,0,1-.38,2.42c-.4,1,1.28,1.72,1.76.74,1.43-2.94,5.61-5.48,8.68-3.29,2.12,1.52,2.34,5,2.07,7.35-.11,1,1.33,1.24,1.79.49,1.46-2.39,6.17-4.08,8.14-1.39,1.37,1.87-.1,5.14-1.11,6.9-.45.77.51,1.93,1.31,1.32a6,6,0,0,1,8.49,1.19c1.62,2.29.21,5-1.66,6.67-.77.68.07,1.79.94,1.61,2-.41,4.7,0,5.6,2.07,1,2.33-1.26,4.82-3.05,6.09a1,1,0,0,0,.49,1.8,5.12,5.12,0,0,1,5,4.41,5.39,5.39,0,0,1-4,5.69,1,1,0,0,0-.23,1.76c2,1.28,3.57,3.76,2.6,6.13-.8,1.95-3.15,2.51-5,2.18-.65-.12-1.46.43-1.19,1.18.61,1.63,1.19,4.27-.18,5.65-2.1,2.14-5.11-.15-5.82-2a1,1,0,0,0-1.18-.68l-5.79,2.07c-1.16.41-.66,2.28.51,1.86l5.79-2.07-1.18-.67c1.19,3.16,4.65,5.32,7.93,3.66,3-1.53,2.79-5.57,1.78-8.31l-1.18,1.18c2.85.51,6.13-.39,7.32-3.27,1.36-3.29-.61-6.76-3.41-8.55l-.23,1.76a7.35,7.35,0,0,0,5.38-7.81,7.09,7.09,0,0,0-6.89-6.08l.48,1.8c2.58-1.84,5.3-5.19,3.86-8.51-1.3-3-4.94-3.79-7.89-3.18l.94,1.61c2.58-2.3,4.06-6.15,1.84-9.2a7.89,7.89,0,0,0-11-1.69l1.32,1.32c1.55-2.71,3.17-7.31.33-9.73-3.23-2.75-8.61-1.1-10.68,2.28l1.8.48c.37-3.33-.37-7.79-3.7-9.4-4-1.91-8.83.64-10.65,4.37l1.76.74a6.38,6.38,0,0,0,.27-4c-.79-2.63-3.73-3.09-6.11-2.8-4.45.56-7.32,4.48-7.35,8.84a1,1,0,0,0,1.92,0Z"/><path class="cls-1" d="M285.38,72h27.79a1,1,0,0,0,0-1.92H285.38a1,1,0,0,0,0,1.92Z"/><path class="cls-1" d="M285.38,80.45h27.79a1,1,0,0,0,0-1.92H285.38a1,1,0,0,0,0,1.92Z"/><path class="cls-1" d="M285.38,88.34H300a1,1,0,0,0,0-1.93H285.38a1,1,0,0,0,0,1.93Z"/><path class="cls-1" d="M244.25,101.81H233.17l1,1V94l-1,1h11.08l-1-1v8.83a1,1,0,0,0,1.92,0V94a1,1,0,0,0-1-1H233.17a1,1,0,0,0-1,1v8.83a1,1,0,0,0,1,1h11.08A1,1,0,0,0,244.25,101.81Z"/><path class="cls-1" d="M228.29,120.41h-12.4l1,1v-9.58l-1,1h12.4l-1-1v9.58a1,1,0,0,0,1.93,0v-9.58a1,1,0,0,0-1-1h-12.4a1,1,0,0,0-1,1v9.58a1,1,0,0,0,1,1h12.4A1,1,0,0,0,228.29,120.41Z"/><path class="cls-1" d="M242.91,205.88v30.24a1,1,0,0,0,1.93,0V205.88a1,1,0,0,0-1.93,0Z"/><path class="cls-2" d="M335,194.54l23.65,29.07,3.39,4.17-.25-.93-1.31,6.21,1.61-.42L357,227c-.35-.38-.68-.82-1.06-1.17-.06-.05-.24-.35-.32-.35.11,0,0,.67.25.46s.12-1.12.15-1.34l.28-2.49.25-2.18c0-.22.08-.46.08-.69,0-.58.08,0,0-.07.25.09-.24.3-.37.3a4.34,4.34,0,0,1,.51,0c.72.06,1.48,0,2.21,0a29.76,29.76,0,0,0,3.85.06c-.08.29-.74-.71-.29,0a9.69,9.69,0,0,0,1.17,1.23l5.87,6.19.69-1.64-7.44.71c-1.22.11-1.23,2,0,1.92l7.44-.71a1,1,0,0,0,.68-1.64l-5.77-6.08c-.54-.57-1.21-1.61-2-1.9-1.05-.38-2.72-.07-3.83-.09s-2.6-.36-3.58,0-1,1.41-1.11,2.31l-.58,5.11a2.17,2.17,0,0,0,.42,2c1.93,2.43,4.2,4.64,6.28,6.94a1,1,0,0,0,1.61-.43l1.12-5.31a2.22,2.22,0,0,0-.31-2.15c-1.6-2.14-3.38-4.16-5.07-6.23l-17.27-21.22-4.45-5.48c-.78-1-2.14.41-1.36,1.36Z"/><path class="cls-1" d="M177.42,29.26a12.38,12.38,0,0,1,8.76-3.8,1,1,0,0,0,0-1.93,14.4,14.4,0,0,0-10.12,4.37c-.87.88.49,2.25,1.36,1.36Z"/><path class="cls-1" d="M174.48,40.09a12.4,12.4,0,0,1,1.16-8.37c.57-1.1-1.09-2.07-1.66-1a14.57,14.57,0,0,0-1.36,9.85c.25,1.22,2.11.7,1.86-.51Z"/><path class="cls-3" d="M126.44,84.3a14.5,14.5,0,0,1,6.14,1.42c1.11.53,2.09-1.13,1-1.67a17,17,0,0,0-7.11-1.68,1,1,0,0,0,0,1.93Z"/><path class="cls-3" d="M119.2,86.33A15.18,15.18,0,0,1,121,85.4a1,1,0,0,0,.35-1.32,1,1,0,0,0-1.32-.35,15.32,15.32,0,0,0-1.8.93,1,1,0,0,0,1,1.67Z"/><path class="cls-3" d="M34.76,140.41a26.58,26.58,0,0,1,16.63-5.66,1,1,0,0,0,0-1.93,28.7,28.7,0,0,0-18,6.23c-1,.78.41,2.14,1.37,1.36Z"/><path class="cls-3" d="M28.09,153.66a16.78,16.78,0,0,1,1.15-5.9c.44-1.16-1.42-1.66-1.86-.51a18.42,18.42,0,0,0-1.22,6.41,1,1,0,0,0,1.93,0Z"/><path class="cls-1" d="M72.6,132.56a19.21,19.21,0,0,0-3.69,10.87,1,1,0,0,0,1.93,0,17.38,17.38,0,0,1,3.42-9.9c.72-1-1-2-1.66-1Z"/><path class="cls-1" d="M80.44,125.54a30.58,30.58,0,0,0-5.11,3.88c-.9.86.46,2.22,1.36,1.36a27.87,27.87,0,0,1,4.72-3.57,1,1,0,0,0-1-1.67Z"/><path class="cls-3" d="M325.52,176.52c6.85.27,6.87,10.36,0,10.64-1.24.05-1.24,2,0,1.92a7.25,7.25,0,1,0,0-14.49c-1.24-.05-1.24,1.88,0,1.93Z"/><path class="cls-3" d="M325.52,38.79c6.85.27,6.87,10.36,0,10.64-1.24,0-1.24,2,0,1.92a7.25,7.25,0,1,0,0-14.49c-1.24,0-1.24,1.88,0,1.93Z"/><path class="cls-3" d="M215.29,146.21A6,6,0,0,1,219.8,144a1,1,0,0,0,0-1.93,7.88,7.88,0,0,0-5.87,2.74c-.81.93.55,2.3,1.36,1.36Z"/><path class="cls-3" d="M215.09,153.12a6,6,0,0,1-.59-4.5,1,1,0,0,0-1.86-.51,8,8,0,0,0,.79,6c.6,1.08,2.26.11,1.66-1Z"/><path class="cls-3" d="M251.4,143.16a15.76,15.76,0,0,1,7.67-1.86,1,1,0,0,0,0-1.92,17.9,17.9,0,0,0-8.64,2.11,1,1,0,0,0,1,1.67Z"/><path class="cls-3" d="M249.33,148.13a3.8,3.8,0,0,1,.37-3c.56-1.1-1.1-2.08-1.67-1a5.85,5.85,0,0,0-.56,4.46c.37,1.18,2.23.67,1.86-.51Z"/><path class="cls-3" d="M290.24,144.44a4.6,4.6,0,0,1,3.86-2.21c1.23,0,1.24-2,0-1.92a6.55,6.55,0,0,0-5.52,3.16c-.66,1.05,1,2,1.66,1Z"/><path class="cls-3" d="M291.31,149.81a4.61,4.61,0,0,1-1.55-3c-.13-1.22-2.05-1.24-1.93,0a6.62,6.62,0,0,0,2.12,4.36c.92.84,2.28-.52,1.36-1.36Z"/><path class="cls-3" d="M351.8,146.5a23.57,23.57,0,0,1,2.53-10.36c.56-1.11-1.11-2.08-1.66-1a25.66,25.66,0,0,0-2.79,11.33,1,1,0,0,0,1.92,0Z"/><path class="cls-3" d="M355.13,158.27a23.91,23.91,0,0,1-2.67-6.39,1,1,0,0,0-1.86.51,26.09,26.09,0,0,0,2.86,6.85,1,1,0,0,0,1.67-1Z"/><path class="cls-3" d="M394.7,109.14a24.54,24.54,0,0,1,3.35-5.58c.76-1-.59-2.32-1.37-1.36a26.44,26.44,0,0,0-3.64,6c-.49,1.12,1.17,2.11,1.66,1Z"/><path class="cls-3" d="M392.84,114.48c.1-.59.21-1.18.35-1.76a1,1,0,0,0-1.86-.51c-.14.58-.25,1.17-.35,1.75a1,1,0,0,0,.67,1.19,1,1,0,0,0,1.19-.67Z"/><path class="cls-3" d="M102.84,141c6.29,6.23,16,9.15,24.56,6.66a1,1,0,0,0-.51-1.86c-7.89,2.3-16.87-.4-22.69-6.17a1,1,0,0,0-1.36,1.37Z"/><path class="cls-3" d="M96.63,144.82c2.53,1.52,5.4,3.23,8.32,3.77,1.22.22,1.74-1.64.52-1.86-2.79-.51-5.47-2.13-7.87-3.58a1,1,0,0,0-1,1.67Z"/><path class="cls-1" d="M29.92,201.5l-26,27.72L.27,233.1c-.85.9.51,2.27,1.36,1.36l26-27.71,3.64-3.88c.85-.91-.51-2.27-1.36-1.37Z"/><path class="cls-3" d="M41.43,189.23,36,195c-.85.9.51,2.26,1.36,1.36l5.43-5.78c.84-.91-.52-2.27-1.37-1.37Z"/><path class="cls-1" d="M90.42,197.72l-8,11.95c-.69,1,1,2,1.66,1l8-12c.69-1-1-2-1.66-1Z"/><path class="cls-3" d="M98,186.39l-4.66,7c-.69,1,1,2,1.67,1l4.65-7c.69-1-1-2-1.66-1Z"/><path class="cls-1" d="M159,144.67l7-7.39c.85-.9-.51-2.26-1.36-1.36l-7,7.39c-.85.9.51,2.26,1.36,1.36Z"/><path class="cls-1" d="M126.14,179.46l24.45-25.9,3.46-3.67c.85-.9-.51-2.26-1.36-1.36l-24.45,25.9-3.47,3.67c-.85.9.51,2.27,1.37,1.36Z"/><path class="cls-1" d="M195,63.09v36.4a1,1,0,0,0,1.93,0V63.09a1,1,0,0,0-1.93,0Z"/><path class="cls-3" d="M195,42.8V54.74a1,1,0,0,0,1.93,0V42.8a1,1,0,0,0-1.93,0Z"/><path class="cls-1" d="M195,153.6v33.28a1,1,0,0,0,1.93,0V153.6a1,1,0,0,0-1.93,0Z"/><path class="cls-3" d="M195,136.6v8.93a1,1,0,0,0,1.93,0V136.6a1,1,0,0,0-1.93,0Z"/><path class="cls-1" d="M429.63,157l2.77,5.68c.54,1.11,2.2.14,1.66-1L431.29,156c-.54-1.12-2.21-.14-1.66,1Z"/><path class="cls-1" d="M432.3,166.56c-.33,1.88-2.08,2.81-3.8,3.19-1.21.27-.7,2.13.51,1.86,2.34-.52,4.71-2,5.15-4.54.21-1.22-1.64-1.74-1.86-.51Z"/><path class="cls-1" d="M458.33,47.12l23-15c1-.68.07-2.35-1-1.67l-23,15.06c-1,.67-.06,2.34,1,1.66Z"/><path class="cls-3" d="M436.37,61.52l13.57-8.9c1-.68.07-2.35-1-1.67l-13.58,8.9c-1,.68-.07,2.35,1,1.67Z"/><path class="cls-1" d="M215.93,1.85c0-.06,0-.09,0-.15-.05.17,0,0,0,0s-.14,0,0,0,.13,0,0,0l.14,0c-.1,0-.06-.06,0,0s-.06-.12,0,0,0,.17,0,0a1,1,0,0,1,0,.14c0-.07.07-.1,0,0s.05,0,0,0-.17,0-.06,0-.07,0-.1,0,.1.06,0,0,0,.05,0,0,0-.22,0,0a1,1,0,0,0,1.93,0,1.81,1.81,0,1,0-3.61-.08A1.82,1.82,0,0,0,216,3.61a1.84,1.84,0,0,0,1.89-1.76,1,1,0,0,0-1-1A1,1,0,0,0,215.93,1.85Z"/><path class="cls-1" d="M76.79,61.92c0-.06,0-.09,0-.14,0,.17,0,0,0,0s-.13,0,0,0,.13,0,0,0l.14,0c-.11,0-.07,0,0,0s-.06-.12,0,0,0,.16,0,0A1,1,0,0,0,77,62c0-.07.06-.09,0,0s0,0,0,0-.18,0-.07,0-.07,0-.1,0,.1.07,0,0,0,0,0,0,0-.22,0,0a1,1,0,0,0,1.93,0,1.81,1.81,0,1,0-1.89,1.76,1.82,1.82,0,0,0,1.89-1.76,1,1,0,0,0-1-1A1,1,0,0,0,76.79,61.92Z"/><path class="cls-1" d="M40.71,99.53a.57.57,0,0,1,0-.14c0,.17,0,0,0,0s-.14,0,0,0,.12,0,0,0l.14,0c-.1,0-.07-.06,0,0s-.06-.13,0,0,0,.16,0,0c0,0,0,.09,0,.14s.07-.1,0,0,.05,0,0,0-.17,0-.07,0-.06,0-.09,0,.09.07,0,0,0,.05,0,0,0-.22,0,0a1,1,0,0,0,1.93,0,1.81,1.81,0,1,0-1.9,1.76,1.84,1.84,0,0,0,1.9-1.76,1,1,0,0,0-1-1A1,1,0,0,0,40.71,99.53Z"/><path class="cls-1" d="M283.54,1.85c0-.06,0-.09,0-.15-.05.17,0,0,0,0s-.14,0,0,0,.13,0,0,0l.14,0c-.11,0-.07-.06,0,0s-.06-.12,0,0,0,.17,0,0a.57.57,0,0,0,0,.14c0-.07.06-.1,0,0s0,0,0,0-.18,0-.07,0-.07,0-.1,0,.1.06,0,0,0,.05,0,0,0-.22,0,0a1,1,0,0,0,1.93,0,1.81,1.81,0,1,0-3.61-.08,1.81,1.81,0,0,0,3.61.08,1,1,0,0,0-1-1A1,1,0,0,0,283.54,1.85Z"/><path class="cls-1" d="M446.65,190.93a1,1,0,0,1,0-.14c-.05.17-.05,0,0,0s-.14,0,0,0,.13,0,0,0l.14,0c-.1,0-.06-.05,0,0s-.06-.12,0,0,0,.17,0,0c0,0,0,.09,0,.14s.07-.1,0,0,0,0,0,0-.17,0-.07,0-.06,0-.09,0,.09.06,0,0,0,.05,0,0,0-.22,0,0a1,1,0,1,0,1.93,0,1.81,1.81,0,1,0-1.9,1.77,1.83,1.83,0,0,0,1.9-1.77,1,1,0,0,0-1.93,0Z"/><path class="cls-1" d="M409.18,238.19a.43.43,0,0,1,0-.14c-.05.17-.05,0,0,0s-.14,0,0,0,.12,0,0,0l.14,0c-.11,0-.07,0,0,0s-.07-.12,0,0,0,.17,0,0a.57.57,0,0,0,0,.14c0-.07.07-.1,0,0s.05,0,0,0-.18,0-.07,0-.06,0-.09,0,.09.06,0,0,0,0,0,0,0-.22,0,0a1,1,0,0,0,1,1,1,1,0,0,0,1-1,1.81,1.81,0,1,0-1.89,1.77,1.84,1.84,0,0,0,1.89-1.77,1,1,0,0,0-1-1A1,1,0,0,0,409.18,238.19Z"/><path class="cls-1" d="M348.72,11.7s0-.09,0-.14c-.05.17,0,0,0,0s-.14,0,0,0,.13,0,0,0l.15,0c-.11,0-.07-.05,0,0s-.06-.12,0,0,0,.17,0,0c0,.05,0,.1-.05.15s.07-.1,0,0,0,0,0,0-.18,0-.07,0-.07,0-.1,0,.1.07,0,0,0,.05,0,0,0-.22,0,0a1,1,0,0,0,1,1,1,1,0,0,0,1-1,1.81,1.81,0,1,0-1.89,1.77,1.83,1.83,0,0,0,1.89-1.77,1,1,0,0,0-1-1A1,1,0,0,0,348.72,11.7Z"/><path class="cls-1" d="M328.55,8.4c0-.06,0-.09,0-.14,0,.17,0,0,0,0s-.13,0,0,0,.13,0,0,0l.14,0c-.11,0-.07-.06,0,0s-.06-.12,0,0,0,.16,0,0a1,1,0,0,0,0,.14c0-.07.06-.09,0,0s0,0,0,0-.18,0-.07,0-.07,0-.1,0,.1.07,0,0,0,.05,0,0,0-.22,0,0a1,1,0,0,0,1.93,0,1.81,1.81,0,1,0-1.89,1.76,1.84,1.84,0,0,0,1.89-1.76,1,1,0,0,0-1-1A1,1,0,0,0,328.55,8.4Z"/><path class="cls-1" d="M309.27,11.66a.33.33,0,0,1,0-.14c-.05.17-.05,0,0,0s-.14,0,0,0,.12,0,0,0l.14,0c-.1,0-.07,0,0,0s-.06-.12,0,0,0,.16,0,0c0,.05,0,.1,0,.14s.07-.09,0,0,0,0,0,0-.17,0-.07,0-.06,0-.09,0,.09.07,0,0,0,.05,0,0,0-.22,0,0a1,1,0,0,0,1.93,0,1.81,1.81,0,1,0-1.9,1.76,1.84,1.84,0,0,0,1.9-1.76,1,1,0,0,0-1-1A1,1,0,0,0,309.27,11.66Z"/><path class="cls-1" d="M293,22.76c0-.06,0-.09,0-.14-.05.17,0,0,0,0s-.14,0,0,0,.13,0,0,0l.14,0c-.1,0-.06-.06,0,0s-.06-.13,0,0,0,.16,0,0a1,1,0,0,1,0,.14c0-.07.07-.1,0,0s.05,0,0,0-.17,0-.06,0-.07,0-.1,0,.1.07,0,0,0,.05,0,0,0-.22,0,0a1,1,0,0,0,1.93,0A1.81,1.81,0,1,0,293,24.52a1.84,1.84,0,0,0,1.89-1.76,1,1,0,0,0-1-1A1,1,0,0,0,293,22.76Z"/><path class="cls-1" d="M222.06,6c2.6-1.78,4.5,1,6.72,2a6.11,6.11,0,0,0,6.57-.73c1.37-1.08,2.25-2.65,4.22-2.56a6.9,6.9,0,0,1,4.1,2.16c1.62,1.52,3.18,3.11,5.61,2.52,3-.72,4.11-5,7.24-4.85s4.87,3.31,7.58,4.28a6.42,6.42,0,0,0,6.56-1.22C272.35,6,274,4,276.45,4.44c1.22.23,1.73-1.63.52-1.86a6.65,6.65,0,0,0-3.31.26,7.59,7.59,0,0,0-2.43,1.37c-1.12.93-1.86,2.25-3.28,2.79-4.74,1.79-7.51-5.13-12.35-4.39-2.47.38-3.36,2.36-5.08,3.87-2.65,2.33-4.22-.06-6.24-1.69a7.75,7.75,0,0,0-5.43-2c-2.64.25-3.55,2.65-5.78,3.6-3,1.3-4.69-1.53-7.13-2.55a5.2,5.2,0,0,0-4.85.5c-1,.7-.05,2.37,1,1.66Z"/><path class="cls-3" d="M42.53,51l3.63,5.26c.69,1,2.37.05,1.66-1l-3.63-5.25c-.69-1-2.36,0-1.66,1Z"/><path class="cls-3" d="M32.53,60.66l4.35,3.8c.93.82,2.3-.54,1.37-1.36L33.9,59.3c-.93-.82-2.3.54-1.37,1.36Z"/><path class="cls-3" d="M25.3,71.32l5.44,3.26a1,1,0,0,0,1-1.66l-5.44-3.26a1,1,0,0,0-1,1.66Z"/><path class="cls-2" d="M47.82,153c.66-1.47,3.86-2.94,4.35-.69.23,1-.82,2.35-1.39,3.07a26.89,26.89,0,0,1-4.47,4.19c-1,.77.39,2.12,1.36,1.36,2.23-1.76,8.48-6.56,5.9-10.16-2-2.72-6.18-1.47-7.41,1.26-.51,1.12,1.15,2.1,1.66,1Z"/><path class="cls-2" d="M47.82,152.07c-1.23-2.73-5.46-4-7.41-1.26-2.58,3.6,3.66,8.4,5.9,10.16,1,.76,2.33-.59,1.36-1.36a27.78,27.78,0,0,1-4.32-4c-.61-.74-1.79-2.17-1.55-3.26.5-2.26,3.7-.78,4.36.69.5,1.13,2.16.15,1.66-1Z"/><path class="cls-3" d="M302.83,229.23c4,3,9.72,4,14.55,4.49,1.24.12,1.23-1.8,0-1.93-4.5-.45-9.83-1.43-13.58-4.22-1-.74-1.95.93-1,1.66Z"/><path class="cls-3" d="M325.62,234.14a29.42,29.42,0,0,0,6.54-.88,1,1,0,0,0-.51-1.85,27.87,27.87,0,0,1-6,.81c-1.24,0-1.25,2,0,1.92Z"/><path class="cls-1" d="M329.39,152.64a37.14,37.14,0,0,1,10.54,2.42c1.15.47,1.65-1.4.51-1.86a38.45,38.45,0,0,0-11.05-2.49c-1.24-.09-1.23,1.84,0,1.93Z"/><path class="cls-3" d="M419.56,19.48c0,2.32-.16,4.64-.38,7-.34,3.58-.71,7.75-2.62,10.9-.65,1.06,1,2,1.66,1,2-3.22,2.4-7.34,2.8-11,.28-2.59.45-5.2.47-7.81a1,1,0,0,0-1.93,0Z"/><path class="cls-2" d="M324,84.84v86.5a1,1,0,0,0,1.91,0V84.84a1,1,0,0,0-1.91,0Z"/><path class="cls-2" d="M251.25,192.39H198.06c-2.8,0-6.2.09-6.36-3.76-.06-1.24,0-2.5,0-3.75V42.56c0-1.39,0-2.79,0-4.18.13-4.08,3.71-3.88,6.65-3.88H231.8a1,1,0,0,0,0-1.93H197.51a15.45,15.45,0,0,0-3.4.14c-3.24.76-4.34,3.64-4.34,6.59V182.15c0,4.61-1.09,11.85,5.59,12.16,7.87.37,15.85,0,23.73,0h32.16a1,1,0,0,0,0-1.93Z"/><path class="cls-2" d="M270.4,56.59H321a33.81,33.81,0,0,0,5.87-.23,11.59,11.59,0,0,0,9.4-7.85c1.61-5.2.22-10.79-4.66-13.55a22.19,22.19,0,0,0-10.87-2.4c-6.25,0-12.51,0-18.77,0H276.43a1,1,0,0,0,0,1.93c14.42,0,28.83.07,43.24,0,6,0,14.68,1.13,15.3,8.61.45,5.37-2.38,9.93-7.66,11.2a21.12,21.12,0,0,1-5,.36H270.4a1,1,0,0,0,0,1.92Z"/><path class="cls-2" d="M210.5,34.5a9.74,9.74,0,0,1,9.5,9c.51,4.8-1.43,11.12-7.23,11.17a1,1,0,0,0,0,1.92c6.89-.05,9.75-7.16,9.15-13.09s-5.19-10.89-11.42-10.93a1,1,0,0,0,0,1.93Z"/><path class="cls-1" d="M299.35,99.59C325.78,78,354.7,59.35,384.28,42.42c2.22-1.28,4.45-2.55,6.7-3.78L390,37q-13.61,9.66-27.23,19.3Q339.1,73,315.33,89.67c-5.39,3.77-10.76,7.58-16.26,11.19-1,.68-.07,2.35,1,1.66,12.3-8.06,24.23-16.74,36.26-25.2q22.49-15.82,44.9-31.74L391,38.64A1,1,0,0,0,390,37a667.65,667.65,0,0,0-64.38,40.37C316.19,84,306.94,90.93,298,98.22c-1,.79.41,2.14,1.37,1.37Z"/><path class="cls-1" d="M220.61,5.13c0,5.66-.37,11.3-.47,17-.06,2.94,0,7.09,2.84,8.88,7.31,4.66,8.67-10.52,8.88-14.46h-1.92q.57,11,1.16,22c.2,3.75.39,7.49.63,11.24.25,4,.85,9,6,8.6,5.39-.44,5.62-7.19,5.77-11.31.05-1.25-1.86-1.24-1.93,0-.19,3.4,0,8.94,3.43,10.83a5.31,5.31,0,0,0,6.5-1.51c2.12-2.67,2.21-6.69,2.39-9.94.06-1.25-1.81-1.21-1.93,0-.42,4.26.21,12.16,6.07,12,5.62-.18,6.65-8,6.55-12.27,0-1-1.71-1.37-1.89-.26a18.85,18.85,0,0,0,.23,8.52c.88,2.81,3.81,5.23,6.69,3.37,3.08-2,4.27-6.77,5.11-10.07a96.43,96.43,0,0,0,2.59-19.87c.18-4.36,0-8.72.11-13.08.06-3.75.27-7.49.28-11.23a1,1,0,0,0-1.92,0c0,5.82-.33,11.63-.29,17.45a121,121,0,0,1-1.27,19.4c-.67,4.39-1.5,9.1-3.57,13.07-1.17,2.25-3.83,4.79-5.55,1.29-1.18-2.41-1-5.74-.56-8.33l-1.89-.26c.08,3.14-.39,10.11-4.62,10.34-4.48.25-4.44-7-4.14-10h-1.93c-.14,2.69-.18,6-1.68,8.34-1.15,1.81-3.86,2.47-5.26.58-1.61-2.18-1.67-5.69-1.52-8.3h-1.93c-.11,3.08,0,9.21-4.23,9.41s-3.61-5.88-3.78-8.86c-.46-8-.87-16-1.29-24-.13-2.38-.25-4.75-.38-7.13a1,1,0,0,0-1.92,0c-.21,3.78-.7,7.93-2.37,11.39-.52,1.08-1.06,2.13-2.36,1.91a3.06,3.06,0,0,1-2-1.29c-1.81-2.59-1.11-6.79-1-9.73.2-4.55.37-9.1.34-13.65a1,1,0,0,0-1.93,0Z"/><path class="cls-2" d="M267.75,172.3h52.9a40.63,40.63,0,0,1,6.14.14c5.51.83,8.87,5,8.82,10.56-.07,8.27-9.8,9.38-16.15,9.38H269.75a1,1,0,0,0,0,1.93h49.59c6.48,0,15.59-.95,17.78-8.31,1.6-5.36-.81-11.73-5.89-14.19a15.56,15.56,0,0,0-7-1.43q-28.25,0-56.5,0a1,1,0,0,0,0,1.92Z"/><path class="cls-3" d="M413.86,90.38a30.5,30.5,0,0,1,15.94,11.8c.7,1,2.37,0,1.66-1a32.6,32.6,0,0,0-17.08-12.67c-1.19-.38-1.7,1.48-.52,1.85Z"/><path class="cls-2" d="M107.7,90.39a35.88,35.88,0,0,1,8.68-8.53c6.29-4.39,13.79-5.53,20.21-.67a25.39,25.39,0,0,1,5.11,5.59,14.15,14.15,0,0,0,5.09,4.28c3.81,2.17,7.64,4.92,9.86,8.8,3.53,6.19.64,13.28-3.46,18.41-3.59,4.48-9.48,8.48-15.46,8.46a1,1,0,0,0,0,1.93c5.36,0,10.85-3,14.61-6.61,5-4.82,9.35-12.59,7.4-19.75-1.07-4-3.89-7.14-7.05-9.62-2.26-1.78-4.9-2.88-7.21-4.53-2.16-1.54-3.27-4.31-5.11-6.19-6-6.2-14.33-7.61-22-3.6a36.43,36.43,0,0,0-12.37,11c-.71,1,1,2,1.67,1Z"/><path class="cls-1" d="M91.43,81.85a181.89,181.89,0,0,0,19.84,11.36c2.43,1.18,4.88,2.31,7.34,3.43a51.77,51.77,0,0,1,8.52,4.35c1.15.82,2,1.75,1.55,3.22-.14.44-.33.7-.62.79-2,.69-5-.6-7-1.28-7.2-2.47-14.13-5.77-21-8.93-1.11-.51-2.09,1.08-1,1.66q9.58,5,19.23,9.87c4.28,2.16,8.57,4.31,12.91,6.34,1.88.88,3.9,1.6,5.69,2.64,1.07.62,5.25,3.84,3,5.37-1.5,1-5.29-.85-6.68-1.38-4.2-1.59-8.29-3.48-12.41-5.26l-.74,1.76A65.76,65.76,0,0,1,132.54,122c1.35.88,5,3.08,4.37,5.14-.9,3-6.94-.08-8.45-.77-4.28-2-8.36-4.38-12.78-6-1.18-.44-1.62,1.39-.51,1.86l.46.2,1.34.6c1.36.63,2.7,1.28,4,2,3,1.57,6.57,3.33,8.75,6,.72.88,1.2,1.85.27,2.8s-2.38.48-3.48.12c-5.25-1.74-10.13-4.85-15.2-7-1.13-.49-2.11,1.17-1,1.67a76.14,76.14,0,0,1,8.9,4.56c.85.51,7.53,4.62,4.1,5.15a12,12,0,0,1-4.61-.57,58.2,58.2,0,0,1-6.94-2.31,182.43,182.43,0,0,1-20.25-9.68,214.51,214.51,0,0,1-25.32-15.77c-1-.74-2,.93-1,1.66a212.59,212.59,0,0,0,25,15.61,182.36,182.36,0,0,0,21.84,10.36c3.43,1.3,8.37,3.5,12.15,2.49a2.58,2.58,0,0,0,2.13-2.56c-.12-1.71-1.85-3-3.09-4a57.86,57.86,0,0,0-12-6.63l-1,1.67c4.87,2.11,9.52,4.79,14.44,6.78,2.19.88,5.07,1.74,6.8-.43,3.91-4.91-6.33-9.82-9.47-11.47-2.11-1.11-4.26-2.14-6.45-3.06l-.51,1.86c4.79,1.78,9.15,4.54,13.86,6.51,2.53,1.07,6.78,2.83,9,.25,4.31-5-7.43-10.46-10.47-12-2.29-1.12-4.62-2.17-7-3.09-1-.38-1.75,1.33-.74,1.77,4,1.7,7.89,3.5,11.91,5.08,2.29.9,4.95,2.09,7.48,2a3,3,0,0,0,3-2.66c.35-2.57-1.68-4.67-3.65-6a50.53,50.53,0,0,0-6.75-3.25q-3.57-1.68-7.11-3.44c-5.17-2.56-10.31-5.18-15.44-7.82q-4.65-2.39-9.28-4.8l-1,1.66c6.87,3.15,13.75,6.38,20.87,8.91,2.45.87,5.9,2.36,8.56,1.53,1.92-.6,2.67-3,2.08-4.77-.64-2-2.86-3.13-4.55-4.05-3.14-1.69-6.44-3.08-9.67-4.58A187.11,187.11,0,0,1,92.4,80.18c-1-.68-2,1-1,1.67Z"/><path class="cls-1" d="M479,122.39a8.45,8.45,0,0,1,7.52-1.24c1.41.42,2.62,1.26,4,1.78,3.39,1.3,7.68,1.83,11,.1,2.46-1.28,4.41-2.67,7.33-2.58a9.73,9.73,0,0,1,5.14,1.8c3.44,2.22,6.64,2.55,9.4-.92.76-1-.59-2.34-1.36-1.37-1.75,2.2-3.56,2.7-6,1.3A22.44,22.44,0,0,0,512,119a11.51,11.51,0,0,0-5.59-.32c-2.52.46-4.24,2.11-6.56,3-3.63,1.33-7.54,0-10.81-1.58a10.6,10.6,0,0,0-11,.64c-1,.7-.05,2.37,1,1.66Z"/></g></g></svg>