<svg xmlns="http://www.w3.org/2000/svg" viewBox="0 0 566.43 240"><defs><style>.cls-1{fill:#415464;}.cls-2{fill:#45d6ad;}.cls-3{fill:#9f6cc7;}</style></defs><title>cosmos</title><g id="Layer_2" data-name="Layer 2"><g id="Layer_1-2" data-name="Layer 1"><path class="cls-1" d="M368.39,83.38a90.73,90.73,0,0,1,3.78,12.28c.26,1.12,2,.65,1.72-.48a89.71,89.71,0,0,0-3.77-12.28c-.42-1.05-2.15-.59-1.73.48Z"/><path class="cls-2" d="M301.26,141.45c16.6-13.12,32.85-26.71,48.57-40.87,14.4-13,28.51-26.39,41.37-40.91a166,166,0,0,0,13.6-17.11c2.47-3.66,5.17-7.81,6-12.23.46-2.51,0-5.15-2.42-6.44-3.07-1.62-7.27-.64-10.41.17-6.95,1.8-13.6,4.92-20,8.1-9.87,4.92-19.41,10.51-28.79,16.31-1,.6-.08,2.15.91,1.54,13.84-8.56,28.25-17.38,43.69-22.78,3.78-1.33,16.73-5.75,15.29,2.62-.72,4.2-3.36,8.15-5.68,11.62a159.66,159.66,0,0,1-13.23,16.69,503.29,503.29,0,0,1-39.09,38.89c-16.49,15-33.58,29.32-51.07,43.13-.9.71.37,2,1.27,1.27Z"/><path class="cls-2" d="M190.38,174.51c-9.23,9.39-18.43,19.1-25.95,29.94a50.13,50.13,0,0,0-5.79,10.2c-.83,2.12-1.56,4.7-.76,6.95,1.79,5,9.24,3.29,13,2.29,10.61-2.83,20.65-8.26,30.21-13.53,14.93-8.24,29.31-17.48,43.4-27.07,1-.64.05-2.19-.9-1.54-11.68,7.95-23.56,15.62-35.76,22.73-10.15,5.9-20.6,11.72-31.64,15.81a43.86,43.86,0,0,1-10.3,2.78c-1.79.19-4.36.37-5.72-1.08s-.78-3.88-.25-5.57a38.29,38.29,0,0,1,4.83-9.25c7.56-11.49,17.3-21.62,26.9-31.39.81-.83-.45-2.09-1.26-1.27Z"/><path class="cls-2" d="M316.72,120.94c13.48-11,26.76-22.33,39.69-34,11.86-10.7,23.58-21.65,34.35-33.46A128.66,128.66,0,0,0,401.28,40.7c1.67-2.4,3.71-5.27,4.07-8.26.78-6.43-8.49-3.34-11.5-2.2a127.24,127.24,0,0,0-17,8.29c-8.19,4.58-16.14,9.56-24,14.66-1,.63-.07,2.18.9,1.55,11.63-7.55,23.5-15.15,36.15-20.91,1.51-.69,14.23-6.7,13.71-1.63-.29,2.83-2.51,5.69-4.08,7.91a129.52,129.52,0,0,1-10.22,12.33C379.12,63.56,368.11,73.92,357,84c-13.51,12.25-27.4,24.07-41.5,35.63-.89.73.38,2,1.26,1.27Z"/><path class="cls-2" d="M301.26,133.42q4.69-3.73,9.37-7.52c.89-.72-.38-2-1.27-1.26q-4.67,3.78-9.37,7.51c-.9.72.37,2,1.27,1.27Z"/><path class="cls-2" d="M193.79,179.28c-8.41,8.16-16.85,16.51-24,25.83a39.31,39.31,0,0,0-5.28,8.38c-.63,1.5-1.28,3.48-.38,5,2.28,3.87,10,.23,12.8-.91,10.08-4.13,19.56-9.85,28.81-15.55,13.21-8.15,26.06-16.89,38.73-25.86.93-.66,0-2.22-.9-1.55C233.21,182,222.72,189.14,212,196a305.67,305.67,0,0,1-29.58,17.16,68.6,68.6,0,0,1-10.34,4.31c-1.56.48-4.13,1.42-5.74.67-3.21-1.49,2.71-9,3.75-10.46,7.21-9.9,16.19-18.61,24.94-27.12.83-.8-.44-2.07-1.26-1.26Z"/><path class="cls-1" d="M272.82,195.93l-11.65-13.26c-1.34-1.53-2.24-.75-3.52.41l-7.9,7.12-6.35,5.73,1.53.63V125.27a.92.92,0,0,0-.9-.9H227.58l.86,1.14a321.51,321.51,0,0,1,10.61-43,135.36,135.36,0,0,1,11.44-26.24c4.13-7,10-15.3,18.15-17.88a9.73,9.73,0,0,1,3.45-.53c.23,0-.47,0,.1,0h.32A5.85,5.85,0,0,1,274,38c7.15,1.57,12.77,8.22,16.72,13.93A108.79,108.79,0,0,1,302.3,74.63a260.14,260.14,0,0,1,11.14,38.49q1.33,6.18,2.5,12.39l.86-1.14H300.35a.92.92,0,0,0-.9.9v71.29l1.53-.63-15.71-14.17a.91.91,0,0,0-1.27,0l-12.44,14.17c-.76.86.5,2.13,1.26,1.26L285.27,183H284l15.72,14.16a.9.9,0,0,0,1.52-.63V125.27l-.89.9H316.8a.91.91,0,0,0,.86-1.14A312.51,312.51,0,0,0,306.51,81a133.43,133.43,0,0,0-11.8-26.19c-4.4-7.21-10.49-15.36-18.9-18.11a13.15,13.15,0,0,0-3.62-.62c.37,0-.29,0-.57,0a11.13,11.13,0,0,0-2.07.24C262,37.79,256.16,44.59,252,50.55A106.86,106.86,0,0,0,240.55,73a257.52,257.52,0,0,0-11.3,39.27q-1.37,6.36-2.54,12.75a.92.92,0,0,0,.87,1.14H244l-.9-.9v71.29a.91.91,0,0,0,1.53.63l12.73-11.47a12.35,12.35,0,0,0,2.45-2.21s.27-.19.27-.24-.76-.15-.82,0,.46.51.49.56c1.7,2.52,4.19,4.77,6.2,7.05l5.58,6.35C272.32,198.06,273.58,196.79,272.82,195.93Z"/><path class="cls-2" d="M159.88,53.86l46-17.58,6.56-2.52-1.13-.86v6.88a.9.9,0,0,0,1.79,0V32.9a.9.9,0,0,0-1.13-.86L166,49.62l-6.57,2.51c-1.07.41-.6,2.14.48,1.73Z"/><path class="cls-2" d="M190.21,62.64,161.08,73.41,114.44,90.65l-10.65,3.94,1.1,1.1,5-23.11-.62.63,31-11.87,4.49-1.72c1.06-.41.6-2.14-.48-1.73L119.1,67.55l-6.83,2.61A22.56,22.56,0,0,0,109,71.44c-.89.51-.86,1.18-1.07,2.16l-1.57,7.2-3.15,14.42c-.13.61.42,1.35,1.11,1.1l29.12-10.77L180,68.3l10.65-3.93c1.07-.4.6-2.13-.48-1.73Z"/><path class="cls-2" d="M151.79,170.75a15.58,15.58,0,1,1-12.64-15.3,15.75,15.75,0,0,1,12.64,15.3.9.9,0,0,0,1.79,0,17.37,17.37,0,1,0-14.23,17.08,17.61,17.61,0,0,0,14.23-17.08A.9.9,0,0,0,151.79,170.75Z"/><path class="cls-2" d="M155.51,170.7a19.35,19.35,0,1,1-15.51-19,19.6,19.6,0,0,1,15.51,19,.9.9,0,0,0,1.79,0,21.14,21.14,0,1,0-17.39,20.8,21.41,21.41,0,0,0,17.39-20.8A.9.9,0,0,0,155.51,170.7Z"/><path class="cls-2" d="M138,216.37a5.78,5.78,0,0,1-11.56,0c.07-7.48,11.24-7.43,11.56,0,0,1.14,1.84,1.15,1.79,0a7.57,7.57,0,1,0-7.57,7.57,7.68,7.68,0,0,0,7.57-7.57C139.83,215.21,138,215.22,138,216.37Z"/><path class="cls-2" d="M148.83,38.56a6.93,6.93,0,1,1-6.92-6.93,7,7,0,0,1,6.92,6.93c0,1.15,1.84,1.15,1.79,0a8.72,8.72,0,1,0-8.71,8.72,8.84,8.84,0,0,0,8.71-8.72C150.67,37.41,148.88,37.41,148.83,38.56Z"/><path class="cls-2" d="M172.13,77a6.93,6.93,0,0,1-12.38,6.22.89.89,0,0,0-1.54.9,8.71,8.71,0,0,0,15.47-8c-.47-1-2-.14-1.55.9Z"/><path class="cls-2" d="M359.23,217c-.3,6.32-9.89,6.39-9.89,0s9.59-6.34,9.89,0c.06,1.14,1.85,1.15,1.79,0a6.74,6.74,0,1,0-6.73,6.73A6.84,6.84,0,0,0,361,217C361.08,215.79,359.29,215.8,359.23,217Z"/><path class="cls-2" d="M427,192.86a10.58,10.58,0,1,1-10.58-10.58A10.7,10.7,0,0,1,427,192.86a.9.9,0,0,0,1.79,0,12.36,12.36,0,0,0-21.85-7.93c-7.27,8.74.6,22.11,11.75,20.08a12.52,12.52,0,0,0,10.1-12.15A.9.9,0,0,0,427,192.86Z"/><path class="cls-2" d="M451.39,185.25a45.65,45.65,0,0,1-5,20.44c-.53,1,1,1.93,1.54.9a47.54,47.54,0,0,0,5.21-21.34.9.9,0,0,0-1.79,0Z"/><path class="cls-1" d="M441.41,192.62a45.33,45.33,0,0,1-10.78,20.63c-.78.85.48,2.12,1.26,1.27a47.15,47.15,0,0,0,11.25-21.42c.25-1.13-1.47-1.61-1.73-.48Z"/><path class="cls-1" d="M354.93,11.45a59.38,59.38,0,0,1,17.19,17.89c.61,1,2.16.08,1.55-.9A61.71,61.71,0,0,0,355.84,9.9c-1-.65-1.86.9-.91,1.55Z"/><path class="cls-1" d="M212.34,232.7a60.85,60.85,0,0,1-12.94-9.37c-.84-.8-2.11.47-1.27,1.26a62.61,62.61,0,0,0,13.31,9.66c1,.54,1.92-1,.9-1.55Z"/><path class="cls-2" d="M100.5,190.31a87.93,87.93,0,0,1-20.31-56.72.9.9,0,0,0-1.79,0,89.81,89.81,0,0,0,20.83,58c.74.89,2-.38,1.27-1.26Z"/><path class="cls-2" d="M95.13,210.51a88,88,0,0,1-29.17-65,.9.9,0,0,0-1.79,0,89.83,89.83,0,0,0,29.69,66.31c.86.77,2.13-.49,1.27-1.27Z"/><path class="cls-2" d="M154.19,77l4,7.12a.89.89,0,0,0,1.54-.9l-4-7.12c-.56-1-2.11-.1-1.54.9Z"/><path class="cls-2" d="M173.68,76.13l-3.14-5.43a.9.9,0,0,0-1.55.9L172.13,77a.9.9,0,0,0,1.55-.9Z"/><path class="cls-2" d="M134.22,42.67l8.05,13.62,4.18,7.06c.87,1.48,1.85,1.27,3.51,1.08a19.69,19.69,0,0,0,12.58-6.24.91.91,0,0,0,.14-1.08L149.16,33.73a.89.89,0,0,0-1.54.91L161.13,58l.14-1.08a17.93,17.93,0,0,1-13.59,5.84l.77.45L135.77,41.77a.9.9,0,0,0-1.55.9Z"/><path class="cls-1" d="M237.42,84.49c-11.85-4.88-26.61-1.85-36.64,5.54-5.83,4.3-11.05,9.47-16.73,14a112.9,112.9,0,0,1-20.94,13.51,60.22,60.22,0,0,1-25,6.32c-10.3.16-20.14-3-29-8-8.65-4.92-17.18-10.06-26-14.58-7-3.58-14.39-6.85-22.15-8.5A44.83,44.83,0,0,0,36.77,94c-10,3.5-18.66,10.15-26.35,17.35-.84.78.43,2,1.27,1.26C24.46,100.67,40.07,91,58.22,94c7.83,1.32,15.25,4.43,22.33,7.94,8.68,4.31,17,9.28,25.42,14.11s17,8.49,26.73,9.36a56.7,56.7,0,0,0,24.86-3.6c14.38-5.36,26.42-15.11,37.9-25,3.72-3.2,7.38-6.4,11.78-8.65a37.13,37.13,0,0,1,15.13-4,34.6,34.6,0,0,1,14.57,2.13c1.07.44,1.53-1.29.48-1.73Z"/><path class="cls-1" d="M510.7,130.11a111.82,111.82,0,0,0-18.07,15.79,42.48,42.48,0,0,1-10.88,8.77,50.34,50.34,0,0,1-14.08,5c-9.93,2-19.84.73-28.29-5-8.23-5.59-15.34-12.72-22.8-19.27a83.75,83.75,0,0,0-10.94-8.57c-2.49-1.54-5.38-3-8.39-2.57-1.13.16-.65,1.89.48,1.72,2.85-.42,5.86,1.61,8.09,3.1a99,99,0,0,1,10.36,8.35c7.26,6.43,14.25,13.32,22.3,18.79s17.42,7,27,5.65c8.94-1.28,18.15-4.86,24.88-11,2.34-2.13,4.36-4.6,6.61-6.82s4.69-4.45,7.16-6.54a87.71,87.71,0,0,1,7.48-5.83c.95-.65,0-2.2-.9-1.55Z"/><path class="cls-2" d="M380.36,133.9a25.64,25.64,0,0,1,7.51.68,57.73,57.73,0,0,1,19.52,8.32c15.48,9.95,26.84,26.82,45.65,31.17,8.11,1.88,16.31.62,24.08-2.11,1.08-.38.61-2.11-.48-1.72-7.28,2.55-15,3.87-22.63,2.22-7.87-1.7-14.87-6.06-21.18-10.91-8.42-6.47-15.56-14.43-24.54-20.2a60.05,60.05,0,0,0-18.89-8.27,29.36,29.36,0,0,0-9-1c-1.14.11-1.15,1.9,0,1.79Z"/><path class="cls-2" d="M496.18,23.39l-24.81,30.5-3.52,4.32c-.72.88.54,2.16,1.27,1.26L493.93,29l3.52-4.31c.72-.89-.54-2.16-1.27-1.27Z"/><path class="cls-2" d="M503.87,28.71,477,57,473.1,61c-.8.83.47,2.1,1.26,1.26L501.28,34,505.14,30c.79-.83-.47-2.1-1.27-1.27Z"/><path class="cls-2" d="M510.52,36.28l-27.9,26.28-3.93,3.69c-.84.79.43,2.06,1.27,1.27l27.9-26.28,3.92-3.7c.84-.79-.42-2-1.26-1.26Z"/><path class="cls-2" d="M402.49,106.18,418.41,89.9h-1.27l34.27,27.33,4.86,3.88v-1.27l-11.8,14.43c-.72.89.54,2.16,1.27,1.27l11.8-14.43a.92.92,0,0,0,0-1.27L423.27,92.51l-4.86-3.88a.93.93,0,0,0-1.27,0l-15.92,16.28c-.8.83.46,2.09,1.27,1.27Z"/><path class="cls-2" d="M422.5,92.91l22.06-24H443.3L471,91.85l-.14-1.09-19.42,25.52c-.7.92.86,1.81,1.55.91l19.42-25.52a.91.91,0,0,0-.14-1.09L444.56,67.65a.91.91,0,0,0-1.26,0l-22.07,24c-.78.85.48,2.12,1.27,1.27Z"/><path class="cls-2" d="M446.87,70.82c5.08-4.87,13.6-4.52,18.83,0s6.7,12.38,3.08,18.23c-.61,1,.94,1.88,1.54.9,4.15-6.69,2.25-15.84-3.77-20.75s-15.3-5-20.95.37c-.83.8.43,2.06,1.27,1.26Z"/><path class="cls-1" d="M299.63,66.7a41.88,41.88,0,0,1-55,1c-.87-.74-2.15.53-1.26,1.27a43.71,43.71,0,0,0,57.49-1c.86-.77-.41-2-1.26-1.26Z"/><path class="cls-1" d="M287.9,133.13c-.09,7.46-3.2,15.78-10.26,19.28-6.85,3.39-14.2-.24-18-6.35a25.49,25.49,0,0,1-1.35-23.33c2.95-6.49,9.53-11.8,17-9.78,8.6,2.34,12.52,12,12.62,20.18a.9.9,0,0,0,1.79,0c-.1-8.3-3.77-17.59-11.83-21.15-7.41-3.27-15.21.4-19.45,6.84-4.94,7.51-5.34,17.82-1.53,25.88,3.28,7,10.43,12.31,18.39,10.46,9.68-2.26,14.31-13,14.42-22A.9.9,0,0,0,287.9,133.13Z"/><path class="cls-2" d="M286.82,97c-.14,2.59-4,2.61-4,0s3.9-2.59,4,0c.07,1.14,1.86,1.15,1.79,0a3.81,3.81,0,1,0-4,3.8,3.87,3.87,0,0,0,4-3.8C288.68,95.87,286.89,95.87,286.82,97Z"/><path class="cls-2" d="M262.62,97c-.14,2.59-4,2.61-4,0s3.9-2.59,4,0c.06,1.14,1.85,1.15,1.79,0a3.81,3.81,0,1,0-4,3.8,3.87,3.87,0,0,0,4-3.8C264.47,95.87,262.68,95.87,262.62,97Z"/><path class="cls-2" d="M262.62,170.07c-.14,2.59-4,2.61-4,0s3.9-2.59,4,0c.06,1.15,1.85,1.15,1.79,0a3.81,3.81,0,1,0-4,3.8,3.87,3.87,0,0,0,4-3.8C264.47,168.92,262.68,168.92,262.62,170.07Z"/><path class="cls-2" d="M286.82,170.07c-.14,2.59-4,2.61-4,0s3.9-2.59,4,0c.07,1.15,1.86,1.15,1.79,0a3.81,3.81,0,1,0-4,3.8,3.87,3.87,0,0,0,4-3.8C288.68,168.92,286.89,168.92,286.82,170.07Z"/><path class="cls-2" d="M137,211.78,178.4,169l5.9-6.1c.8-.83-.46-2.1-1.27-1.27l-41.4,42.78-5.9,6.1c-.8.83.47,2.1,1.27,1.27Z"/><path class="cls-2" d="M149.85,155.86,167,140.13h-1.27l2.82,2.88v-1.26l-16.11,15.46c-.83.8.44,2.06,1.27,1.26L169.81,143a.91.91,0,0,0,0-1.26L167,138.86a.92.92,0,0,0-1.27,0L148.58,154.6c-.85.78.42,2,1.27,1.26Z"/><path class="cls-1" d="M239.61,77a50.82,50.82,0,0,0,27.48,13.18l-.9-.89v18.89l.66-.86c-5.82,2-10.86,7-13.47,12.47-4.71,9.89-3.53,24.26,4.09,32.46a25.09,25.09,0,0,0,9.38,6.06l-.66-.86v20l.9-.89H244a.9.9,0,0,0,0,1.79h23.06a.91.91,0,0,0,.89-.9v-20a.93.93,0,0,0-.65-.87,22.14,22.14,0,0,1-14-16.35c-2.3-10.3-.06-21.68,8.72-28.23a19.84,19.84,0,0,1,5.25-3,.91.91,0,0,0,.65-.86V89.27a.92.92,0,0,0-.89-.9,48.89,48.89,0,0,1-26.21-12.65c-.84-.79-2.11.47-1.27,1.26Z"/><path class="cls-1" d="M303.2,75.72A48.89,48.89,0,0,1,277,88.37a.92.92,0,0,0-.9.9v18.89a.91.91,0,0,0,.66.86c5.08,1.83,9.59,6.29,12.08,11,4.92,9.26,3.89,23.42-3.57,31.14a23.44,23.44,0,0,1-8.51,5.4.94.94,0,0,0-.66.87v20a.91.91,0,0,0,.9.9h23.06a.9.9,0,0,0,0-1.79H277l.89.89v-20l-.65.86c7.91-3.11,13.43-9.07,15.34-17.5,2.46-10.91,0-22.69-9-29.81a23.18,23.18,0,0,0-6.3-3.68l.65.86V89.27l-.89.89A50.79,50.79,0,0,0,304.46,77c.84-.79-.42-2-1.26-1.26Z"/><path class="cls-2" d="M351.48,212.87a57.41,57.41,0,0,0,8.83-7.79A114.25,114.25,0,0,0,378.46,180a143.13,143.13,0,0,0,9.73-22.54l-1.63.21c.84,1.95.5,5.65-.09,8.07-.17.7.64,1.49,1.31,1a13.32,13.32,0,0,0,3.06-3.46,48.48,48.48,0,0,0,6-13.61l-1.76-.24a36.76,36.76,0,0,1-1.1,10.12,77.49,77.49,0,0,1-11.26,25.59.9.9,0,0,0,1.4,1.09c2.92-3.21,5.69-6.57,8.34-10,3.66-4.75,8.23-10.31,9.46-16.35l-1.76-.24a52.82,52.82,0,0,1-3.42,12.17,100.48,100.48,0,0,1-18.46,29.56,143.18,143.18,0,0,1-22,20.11c-.92.68,0,2.24.9,1.55,19.46-14.54,37.86-34.63,43.9-58.84a33.21,33.21,0,0,0,.87-4.55c.11-1-1.55-1.22-1.75-.23-1.21,5.94-5.82,11.46-9.45,16.13-2.51,3.23-5.13,6.4-7.89,9.43l1.4,1.09a78.68,78.68,0,0,0,11.44-26,38.22,38.22,0,0,0,1.17-10.59.9.9,0,0,0-1.76-.24,47.59,47.59,0,0,1-5.56,12.89,16.13,16.13,0,0,1-1.95,2.48c-.17.17-.86.77-.67.64l1.31,1c.74-3,1.18-6.52-.09-9.45-.33-.77-1.41-.44-1.63.21-6.54,19.39-17.17,38.63-33,52a36,36,0,0,1-2.92,2.3c-.95.64-.06,2.19.9,1.54Z"/><path class="cls-2" d="M464,101.84,479.56,108a.91.91,0,0,0,1.1-.62L490,82.24c.4-1.08-1.33-1.55-1.72-.48l-9.33,25.17,1.1-.62-15.58-6.2c-1.07-.42-1.54,1.31-.48,1.73Z"/><path class="cls-2" d="M563.48,133.09l-4.87-12.58c-1.17-3-2.11-6.38-3.66-9.25-4.86-9-10.44-17.56-15.65-26.3l-5.81-9.78a.94.94,0,0,0-1-.41l-38.14,5.37-5.46.77.87.23L471.19,64.36,441.77,37.78,435,31.63a.9.9,0,0,0-1.4.18L411.91,73l-3.08,5.86a.92.92,0,0,0,.54,1.32L426.73,87c1.07.43,1.54-1.3.48-1.72L409.84,78.4l.54,1.32L432,38.57l3.08-5.86-1.4.18L471.55,67.1c5.48,5,10.91,10,16.45,14.86,1.14,1,2.36.53,3.82.33l13.33-1.88L533,76.5l-1-.41,14,23.62,7,11.81c.18.3.37.59.54.9s0-.11,0-.06.14.37.21.54c.78,2,1.55,4,2.32,6l5.67,14.66c.42,1.06,2.15.6,1.73-.48Z"/><path class="cls-2" d="M76.23,40.84l-39,40.66L31.7,87.27a.92.92,0,0,0,0,1.27l23.57,25.21,3.38,3.62.18-1.41L19.21,142.9l-5.69,3.87a.91.91,0,0,0-.18,1.41l37.06,40.3,5.33,5.8c.78.85,2.05-.42,1.27-1.27L19.93,152.7l-5.33-5.79-.18,1.41L54,121.38l5.69-3.87a.91.91,0,0,0,.18-1.41L36.35,90.89,33,87.27v1.27L72,47.87l5.53-5.76c.8-.83-.47-2.1-1.27-1.27Z"/><path class="cls-1" d="M1.1,134.45c7.06-2.09,13.67-7.12,18.25-12.75,3.76-4.62,7.51-8.67,12.56-11.91A40,40,0,0,1,39,106c1.06-.41.6-2.14-.47-1.72a45.29,45.29,0,0,0-18.72,13.9c-5,6.3-11.29,12.2-19.19,14.53-1.1.33-.63,2.06.47,1.73Z"/><path class="cls-1" d="M233.87,97.75c-2.21-1.51-5.21-2.08-7.81-2.35-7.48-.76-15,1.76-21.56,5.19-18.88,9.89-32.28,29.34-53.34,35.38-11.74,3.36-23.81.94-35-3.25-1.08-.4-1.55,1.33-.48,1.73,9.72,3.63,20.1,6,30.49,4.44,8.83-1.33,16.79-5.55,24-10.59,9.38-6.53,17.65-14.5,27-21.09,7.49-5.29,16.36-10,25.74-10.14,3.25-.06,7.26.32,10.05,2.23,1,.65,1.86-.9.91-1.55Z"/><path class="cls-1" d="M107.51,128.28a205.3,205.3,0,0,0-19.08-11.49c-1-.52-1.94,1-.91,1.54a205,205,0,0,1,19.08,11.5c1,.62,1.87-.93.91-1.55Z"/><path class="cls-1" d="M300.11,166.26a19,19,0,0,0,8.34-.56c7.83-1.92,14.79-6.68,20.69-12,11.15-10.06,18.19-23.32,28.09-34.44,7.15-8,15.47-15.27,25.14-20.1,3.7-1.84,8.5-3.85,12.38-4.14,1.14-.09,1.15-1.88,0-1.79a32.17,32.17,0,0,0-9.55,2.69,75.61,75.61,0,0,0-22.67,15.3,120.76,120.76,0,0,0-13.72,15.57c-4.88,6.53-9.23,13.35-14.72,19.41-6.39,7-14.06,13.74-23.18,16.92-3.07,1.07-7.44,2.07-10.32,1.44-1.13-.25-1.61,1.47-.48,1.72Z"/><path class="cls-3" d="M486.66,167.93a139,139,0,0,0,11.71-7.78c.91-.69,0-2.25-.9-1.55a138.36,138.36,0,0,1-11.72,7.78.9.9,0,0,0,.91,1.55Z"/><path class="cls-3" d="M503.07,156.49l4.52-3.51c.91-.71-.36-2-1.26-1.27l-4.52,3.52c-.91.7.36,2,1.26,1.26Z"/><path class="cls-1" d="M451.37,72a10.08,10.08,0,0,1,6.93-.82c1.12.25,1.6-1.48.48-1.73a12,12,0,0,0-8.31,1c-1,.52-.13,2.06.9,1.54Z"/><path class="cls-1" d="M210.19,15.6A105.69,105.69,0,0,1,231,8.69c1.12-.25.64-2-.48-1.73a107.88,107.88,0,0,0-21.21,7.09c-1,.47-.14,2,.9,1.55Z"/><path class="cls-1" d="M179.48,37.08a107.67,107.67,0,0,1,16-13.24c1-.64.06-2.19-.9-1.54a109.45,109.45,0,0,0-16.33,13.51c-.82.82.45,2.09,1.26,1.27Z"/><path class="cls-2" d="M149.67,109.71a107.82,107.82,0,0,1,2.25-21.57c.24-1.12-1.49-1.6-1.72-.48a109.63,109.63,0,0,0-2.32,22,.9.9,0,0,0,1.79,0Z"/><path class="cls-3" d="M122.08,52.72a28,28,0,0,1,4-32.36c.78-.85-.48-2.12-1.26-1.27a29.8,29.8,0,0,0-4.26,34.54c.55,1,2.1.1,1.54-.91Z"/><path class="cls-2" d="M118.32,59.11a33.31,33.31,0,0,1-5.53-35.59c.46-1-1.08-1.95-1.55-.9a35.21,35.21,0,0,0,5.81,37.76c.76.86,2-.41,1.27-1.27Z"/><path class="cls-2" d="M118,207.21l5.68,3.26a.9.9,0,0,0,.9-1.55l-5.67-3.25a.89.89,0,0,0-.91,1.54Z"/><path class="cls-2" d="M122.09,224.93l-5.67,5.53c-.83.81.44,2.07,1.26,1.27l5.67-5.54c.83-.8-.44-2.07-1.26-1.26Z"/><path class="cls-2" d="M139.5,224.41l3.24,7.14c.48,1,2,.14,1.55-.91l-3.24-7.13c-.48-1-2-.14-1.55.9Z"/><path class="cls-2" d="M131.35,227.29l-.85,5.94c-.16,1.13,1.56,1.62,1.73.48l.84-5.94c.16-1.13-1.56-1.62-1.72-.48Z"/><path class="cls-2" d="M119.88,215.47h-7.15a.9.9,0,0,0,0,1.79h7.15a.9.9,0,0,0,0-1.79Z"/><path class="cls-1" d="M31.44,45.49V58.76a.9.9,0,0,0,1.79,0V45.49a.9.9,0,0,0-1.79,0Z"/><path class="cls-1" d="M38.77,51H26.07a.9.9,0,0,0,0,1.79h12.7a.9.9,0,0,0,0-1.79Z"/><path class="cls-1" d="M84.65,73.51V86.77a.9.9,0,0,0,1.79,0V73.51a.9.9,0,0,0-1.79,0Z"/><path class="cls-1" d="M92,79H79.29a.9.9,0,0,0,0,1.79H92A.9.9,0,0,0,92,79Z"/><path class="cls-1" d="M520.32,113v13.26a.9.9,0,0,0,1.79,0V113a.9.9,0,0,0-1.79,0Z"/><path class="cls-1" d="M527.66,118.53H515a.9.9,0,0,0,0,1.79h12.7a.9.9,0,0,0,0-1.79Z"/><path class="cls-1" d="M126.89,166.81a12.12,12.12,0,0,1,10.3-6,.9.9,0,0,0,0-1.79,14,14,0,0,0-11.85,6.9.9.9,0,0,0,1.55.9Z"/><path class="cls-1" d="M262.5,130.82c.79-5.74,4.15-12.13,10.64-12.41,1.15,0,1.16-1.84,0-1.79-7.28.31-11.45,7.11-12.37,13.72-.16,1.13,1.57,1.61,1.73.48Z"/><path class="cls-1" d="M264,140.91a18.83,18.83,0,0,1-1.52-5.5c-.14-1.13-1.93-1.14-1.79,0a21.32,21.32,0,0,0,1.77,6.4c.47,1.05,2,.14,1.54-.9Z"/><path class="cls-1" d="M257.4,59.21A50.16,50.16,0,0,1,267,47c.85-.78-.42-2-1.26-1.26a51.5,51.5,0,0,0-9.92,12.55c-.57,1,1,1.91,1.54.91Z"/><path class="cls-1" d="M253.42,68.52a52.56,52.56,0,0,1,2-5.29c.46-1-1.09-2-1.55-.9a57.9,57.9,0,0,0-2.16,5.72c-.34,1.1,1.38,1.57,1.73.47Z"/><path class="cls-1" d="M300.26,176.3a34.13,34.13,0,0,0,12.32-1.7c9.69-2.89,18.16-8.94,24.76-16.53,7.17-8.26,13-17.68,19.83-26.24,6.47-8.12,13.61-16.35,22.55-21.84,8-4.92,17.29-6.43,25.86-1.88,5.67,3,10.68,7.52,15.78,11.38,5.37,4.07,10.77,8.13,16.38,11.87,8.77,5.84,19.14,12.07,30,11.92a23.15,23.15,0,0,0,13.26-4.4c4.54-3.29,7.9-8,11.32-12.39,6.09-7.84,11.75-16.24,19-23.06A40.79,40.79,0,0,1,536.6,92.26a64.9,64.9,0,0,1,8.82,0c1.15.07,1.15-1.72,0-1.79-9.85-.6-19.78.79-28.24,6.16-7.62,4.84-13.36,12-18.81,19.08-3.45,4.48-6.82,9-10.37,13.42s-7.38,8.85-12.89,11c-10.52,4.05-22-1.41-30.91-6.77-11.55-6.91-22-15.56-32.76-23.54-7.49-5.53-16.15-8-25.19-4.89s-16.37,9.82-22.68,16.66c-7.29,7.9-13.59,16.65-19.92,25.32-6.87,9.41-14.07,18.18-24.77,23.36a39.9,39.9,0,0,1-17.69,4.31c-.31,0-.62,0-.93,0-1.15-.1-1.14,1.69,0,1.79Z"/><path class="cls-1" d="M212.05,196.79a99.7,99.7,0,0,1-36.49-65.23c-.14-1.13-1.93-1.14-1.79,0a101.48,101.48,0,0,0,37,66.5c.89.72,2.17-.54,1.27-1.27Z"/><path class="cls-1" d="M374.88,118.9a100.06,100.06,0,0,1-106.64,99.84,99.32,99.32,0,0,1-52-18.74c-.93-.68-1.83.87-.9,1.54A101.8,101.8,0,0,0,376.67,118.9a.9.9,0,0,0-1.79,0Z"/><path class="cls-3" d="M436.35,32.26c-.14,2.59-4,2.61-4,0s3.9-2.59,4,0c.06,1.15,1.85,1.16,1.79,0a3.81,3.81,0,1,0-4,3.8,3.88,3.88,0,0,0,4-3.8C438.2,31.11,436.41,31.11,436.35,32.26Z"/><path class="cls-3" d="M411.62,79.26c-.14,2.59-4,2.61-4,0s3.9-2.58,4,0c.07,1.15,1.86,1.16,1.79,0a3.81,3.81,0,1,0-4,3.81,3.87,3.87,0,0,0,4-3.81C413.48,78.11,411.69,78.12,411.62,79.26Z"/><path class="cls-3" d="M481.81,107.17c-.14,2.59-4,2.61-4,0s3.9-2.59,4,0c.06,1.15,1.86,1.15,1.79,0a3.81,3.81,0,1,0-4,3.8,3.87,3.87,0,0,0,4-3.8C483.67,106,481.87,106,481.81,107.17Z"/><path class="cls-3" d="M491.14,81.77c-.14,2.59-4,2.61-4,0s3.9-2.59,4,0c.06,1.15,1.85,1.15,1.79,0a3.81,3.81,0,1,0-4,3.8,3.88,3.88,0,0,0,4-3.8C493,80.62,491.2,80.62,491.14,81.77Z"/><path class="cls-3" d="M534.74,75.63c-.14,2.59-4,2.61-4,0s3.9-2.58,4,0c.06,1.15,1.85,1.16,1.79,0a3.81,3.81,0,1,0-4,3.81,3.88,3.88,0,0,0,4-3.81C536.59,74.48,534.8,74.49,534.74,75.63Z"/><path class="cls-3" d="M556.42,112.09c-.14,2.58-4,2.6-4,0s3.9-2.59,4,0c.06,1.14,1.85,1.15,1.79,0a3.81,3.81,0,1,0-4,3.8,3.87,3.87,0,0,0,4-3.8C558.27,110.93,556.48,110.94,556.42,112.09Z"/><path class="cls-3" d="M564.64,133.33c-.14,2.59-4,2.61-4,0s3.9-2.59,4,0c.06,1.15,1.85,1.15,1.79,0a3.81,3.81,0,1,0-4,3.8,3.87,3.87,0,0,0,4-3.8C566.49,132.18,564.7,132.18,564.64,133.33Z"/><path class="cls-3" d="M78.88,41.47c-.13,2.59-4,2.61-4,0s3.9-2.58,4,0c.07,1.15,1.86,1.16,1.8,0a3.81,3.81,0,1,0-4,3.81,3.89,3.89,0,0,0,4-3.81C80.74,40.32,79,40.33,78.88,41.47Z"/><path class="cls-3" d="M34.35,87.9c-.14,2.59-4,2.61-4,0s3.9-2.58,4,0c.06,1.15,1.86,1.16,1.79,0a3.81,3.81,0,1,0-4,3.8,3.87,3.87,0,0,0,4-3.8C36.21,86.75,34.42,86.76,34.35,87.9Z"/><path class="cls-3" d="M61.3,116.74c-.14,2.58-4,2.61-4,0s3.9-2.59,4,0c.06,1.14,1.85,1.15,1.79,0a3.81,3.81,0,1,0-4,3.8,3.87,3.87,0,0,0,4-3.8C63.15,115.58,61.36,115.59,61.3,116.74Z"/><path class="cls-3" d="M16,147.54c-.14,2.59-4,2.61-4,0s3.9-2.58,4,0c.06,1.15,1.85,1.16,1.79,0a3.81,3.81,0,0,0-7.62,0,3.81,3.81,0,0,0,7.62,0C17.84,146.39,16.05,146.4,16,147.54Z"/><path class="cls-3" d="M58.38,193.65c-.14,2.58-4,2.61-4,0s3.9-2.59,4,0c.06,1.14,1.86,1.15,1.79,0a3.81,3.81,0,1,0-4,3.8,3.87,3.87,0,0,0,4-3.8C60.24,192.49,58.44,192.5,58.38,193.65Z"/><path class="cls-1" d="M135,101a7.22,7.22,0,1,1-7.51-7.21A7.31,7.31,0,0,1,135,101c.05,1.36,2.17,1.37,2.12,0a9.34,9.34,0,1,0-9.34,9.34A9.46,9.46,0,0,0,137.1,101C137.15,99.63,135,99.63,135,101Z"/><path class="cls-1" d="M400.33,219.17a7.22,7.22,0,1,1-7.52-7.2,7.31,7.31,0,0,1,7.52,7.2c0,1.37,2.17,1.37,2.12,0a9.34,9.34,0,1,0-9.34,9.34,9.47,9.47,0,0,0,9.34-9.34C402.5,217.8,400.37,217.8,400.33,219.17Z"/><path class="cls-1" d="M410.65,192.76a6,6,0,0,1,5.87-5.88.87.87,0,0,0,0-1.73,7.73,7.73,0,0,0-7.61,7.61c0,1.11,1.71,1.11,1.74,0Z"/><path class="cls-1" d="M345.27,70.85a7.22,7.22,0,1,1-7.51-7.2,7.31,7.31,0,0,1,7.51,7.2c.05,1.37,2.18,1.38,2.13,0a9.34,9.34,0,1,0-9.34,9.35,9.48,9.48,0,0,0,9.34-9.35C347.45,69.49,345.32,69.49,345.27,70.85Z"/><path class="cls-1" d="M468.51,24a7.22,7.22,0,1,1-7.51-7.2,7.31,7.31,0,0,1,7.51,7.2c.05,1.37,2.18,1.37,2.13,0a9.34,9.34,0,1,0-9.34,9.34A9.46,9.46,0,0,0,470.64,24C470.69,22.65,468.56,22.66,468.51,24Z"/><path class="cls-2" d="M502.12,165.55A32.36,32.36,0,0,1,486,191.93,34.76,34.76,0,0,1,456.78,194c-1.29-.48-1.84,1.57-.57,2.05a36.81,36.81,0,0,0,31.38-2.64,34.56,34.56,0,0,0,16.65-27.9c.07-1.37-2.05-1.36-2.12,0Z"/><path class="cls-2" d="M511,156.66a44,44,0,0,1,.67,11.51l1.07-1.06-3.14-.27a1.07,1.07,0,0,0-1.06,1.06,44.87,44.87,0,0,1-.92,5.78,1.09,1.09,0,0,0,.75,1.31l3,1.09-.74-1.31a44.87,44.87,0,0,1-3.53,9.59l1.2-.49-3.05-1.18a1.07,1.07,0,0,0-1.2.49,42.91,42.91,0,0,1-4,6.13,1.1,1.1,0,0,0,0,1.51l2.39,2.3v-1.51a47.66,47.66,0,0,1-7.15,7h1.5l-2.64-2.2a1.08,1.08,0,0,0-1.28-.17,44.19,44.19,0,0,1-6.85,4.13,1.08,1.08,0,0,0-.48,1.2l.73,3.39.49-1.2a45.11,45.11,0,0,1-9.07,2.94l1.31.74-1.15-3.24a1.1,1.1,0,0,0-1.31-.74,45.29,45.29,0,0,1-6.36.68,1.06,1.06,0,0,0-1,.78l-.53,3.42,1-.78a45.47,45.47,0,0,1-11.55-1.44l.78,1,.28-3.14a1.06,1.06,0,0,0-.78-1c-1.23-.36-2.45-.75-3.65-1.2s-1.83,1.56-.56,2,2.42.84,3.65,1.2l-.78-1-.29,3.14a1.06,1.06,0,0,0,.78,1,48.16,48.16,0,0,0,12.12,1.52,1.07,1.07,0,0,0,1-.78l.53-3.43-1,.78a48.65,48.65,0,0,0,6.92-.75l-1.3-.75,1.15,3.25a1.1,1.1,0,0,0,1.31.74,48.42,48.42,0,0,0,9.58-3.15,1.06,1.06,0,0,0,.48-1.2l-.73-3.39-.49,1.2a45.21,45.21,0,0,0,6.84-4.13l-1.29-.17,2.64,2.21a1.11,1.11,0,0,0,1.5,0,47.73,47.73,0,0,0,7.16-7,1.1,1.1,0,0,0,0-1.51l-2.39-2.3v1.51a46.43,46.43,0,0,0,4.35-6.57l-1.2.49,3.06,1.18a1.06,1.06,0,0,0,1.2-.48,48.66,48.66,0,0,0,3.74-10.1A1.1,1.1,0,0,0,512,174l-3-1.09.74,1.31a47.09,47.09,0,0,0,1-6.35L509.63,169l3.14.27a1.07,1.07,0,0,0,1.06-1.06,46.52,46.52,0,0,0-.75-12.07c-.27-1.34-2.32-.78-2.05.56Z"/><path class="cls-2" d="M341.06,1.94c0-.11.05,0,0,0s.18-.14.08-.09.09,0,.08,0h0c.1,0,.05.07,0,0s.14.18.09.07,0,.1,0,.09h0c0-.07,0-.06,0,0s-.07.05,0,0a.57.57,0,0,0-.11.11c.13-.13,0,0,0,0s.14.05,0,0-.09-.07,0,0L341,2c.13.14,0,0,0,0h0c0,.08,0,.07,0,0a1.11,1.11,0,0,0,.75,1.31,1.07,1.07,0,0,0,1.3-.75,2,2,0,0,0-3.85-1,2,2,0,1,0,3.85,1,1.06,1.06,0,0,0-.74-1.3A1.08,1.08,0,0,0,341.06,1.94Z"/><path class="cls-2" d="M254.5,10.62c0-.11.05,0,0,0s.18-.14.08-.09.08,0,.08,0h0c.09,0,0,.07,0,0s.14.19.08.07,0,.1,0,.09h0c0-.08,0-.07,0,0s-.07,0,0,0l-.12.11c.14-.13.05,0,0,0s.14,0,0,0-.09-.07,0,0l-.11-.12c.12.14,0,0,0,0h0c0,.08,0,.07,0,0a1.1,1.1,0,0,0,.74,1.31,1.08,1.08,0,0,0,1.31-.75,2,2,0,1,0-2.48,1.41,2,2,0,0,0,2.48-1.41,1.06,1.06,0,0,0-.74-1.3A1.08,1.08,0,0,0,254.5,10.62Z"/><path class="cls-2" d="M237.06,14.77c0-.11.05,0,0,0s.17-.14.07-.09.09,0,.08,0h0c.09,0,0,.07,0,0s.14.18.08.07,0,.09,0,.09h0c0-.07,0-.06,0,0s-.07,0,0,0l-.11.11c.13-.13,0,0,0,0s.14,0,0,0-.09-.07,0,0l-.1-.12c.12.14,0,0,0,0h0c0,.08,0,.07,0,0a1.08,1.08,0,0,0,.74,1.3,1.07,1.07,0,0,0,1.31-.74,2,2,0,1,0-2.49,1.41,2,2,0,0,0,2.49-1.41,1.08,1.08,0,0,0-.74-1.31A1.09,1.09,0,0,0,237.06,14.77Z"/><path class="cls-2" d="M220.12,23c0-.11,0,0,0,0s.17-.14.07-.09.09,0,.08,0h0c.1,0,.05.07,0,0s.15.18.09.07,0,.09,0,.08h0c0-.07,0-.06,0,0s-.07,0,0,0a.57.57,0,0,0-.11.11c.13-.13,0,0,0,0s.14.05,0,0-.08-.08,0,0l-.11-.11c.13.14,0,0,0,0h0c0,.08,0,.07,0,0a1.08,1.08,0,0,0,.74,1.3,1.07,1.07,0,0,0,1.31-.74,2.06,2.06,0,0,0-1.42-2.44,2,2,0,1,0,1.42,2.44,1.06,1.06,0,1,0-2-.56Z"/><path class="cls-3" d="M143.66,167a9.31,9.31,0,0,0,5.74-.27c1.88-.76,3.15-2.21,5.3-2.37a7.86,7.86,0,0,1,4.75,1.37c4.09,2.35,10.28,3.07,14.55.87,1.57-.82,2.83-1.94,4.62-2.33a10,10,0,0,1,5.4.41c2.14.73,3.95,2,6.19,2.52a15.33,15.33,0,0,0,8.23,0,22.76,22.76,0,0,0,3.83-2.05,11.62,11.62,0,0,1,6.16-1.43c3.27.18,5.18,2.24,8,3.43,3.06,1.28,5.63.06,7.61-2.43.71-.89-.55-2.17-1.27-1.27-1.18,1.5-2.6,2.8-4.65,2.38a11,11,0,0,1-3.54-1.79,12.3,12.3,0,0,0-6.18-2.11c-3.43-.19-6,1.18-8.86,2.82s-6.14,1.41-9.13.62c-2.13-.55-3.89-1.76-5.95-2.46a11.35,11.35,0,0,0-8.21.22c-1.23.53-2.22,1.44-3.42,2A11.16,11.16,0,0,1,168,166a15.89,15.89,0,0,1-7.39-1.71c-2.67-1.47-5.24-2.39-8.29-1.29-1.71.63-2.93,2-4.77,2.36a8,8,0,0,1-3.44-.13.89.89,0,0,0-.47,1.72Z"/><path class="cls-2" d="M274.4,238.21a125.11,125.11,0,0,1-33.92-4.77.9.9,0,0,0-.47,1.73A126.93,126.93,0,0,0,274.4,240a.9.9,0,0,0,0-1.79Z"/><path class="cls-2" d="M311.91,232.34A124.44,124.44,0,0,1,283,237.91c-1.15.09-1.15,1.88,0,1.79a126.85,126.85,0,0,0,29.39-5.63c1.09-.35.62-2.08-.48-1.73Z"/><path class="cls-2" d="M333.81,222.82c-3.35,1.86-6.79,3.56-10.29,5.12-1.06.47-.15,2,.9,1.55q5.26-2.34,10.3-5.13c1-.55.1-2.1-.91-1.54Z"/><path class="cls-2" d="M228.88,229.46a125.33,125.33,0,0,1-21.21-11.06c-1-.63-1.87.92-.91,1.54a128,128,0,0,0,21.64,11.24c1.07.43,1.53-1.3.48-1.72Z"/><path class="cls-1" d="M175.86,104.23a101,101,0,0,1,55.53-75.47c30.73-14.87,68.56-12.83,97.44,5.43a98,98,0,0,1,36.46,41.9c.48,1,2,.13,1.55-.91a100.46,100.46,0,0,0-80-57.44,101.91,101.91,0,0,0-112.75,86c-.17,1.13,1.56,1.61,1.73.48Z"/><path class="cls-2" d="M337.43,175.27a92.28,92.28,0,0,1-8.28,7.91c-.88.74.39,2,1.27,1.26a90.73,90.73,0,0,0,8.27-7.9c.78-.85-.48-2.11-1.26-1.27Z"/><path class="cls-2" d="M352.66,151.82a88.52,88.52,0,0,1-10,17.1c-.69.92.87,1.82,1.55.9a88.74,88.74,0,0,0,9.95-17.1c.46-1-1.08-2-1.55-.9Z"/><path class="cls-2" d="M220.33,53.63a87.46,87.46,0,0,1,17.3-11.37c1-.51.13-2.06-.9-1.55a89.6,89.6,0,0,0-17.67,11.65c-.88.74.39,2,1.27,1.27Z"/><path class="cls-2" d="M208.29,66.16c1.22-1.56,2.5-3.07,3.82-4.55.77-.86-.49-2.13-1.26-1.27-1.33,1.48-2.6,3-3.83,4.56-.7.89.56,2.17,1.27,1.26Z"/><path class="cls-2" d="M127.48,69l-14.43,5.44c-1.27.48-.72,2.54.56,2L128.05,71c1.26-.48.71-2.53-.57-2Z"/><path class="cls-2" d="M443.21,75.6,429.54,90.46c-.92,1,.58,2.51,1.51,1.5L444.71,77.1c.92-1-.57-2.51-1.5-1.5Z"/><path class="cls-2" d="M418.24,96.27l-6.47,6.92c-.94,1,.56,2.5,1.5,1.5l6.47-6.92c.93-1-.57-2.51-1.5-1.5Z"/><path class="cls-2" d="M307.58,4.58A118.54,118.54,0,0,1,349.46,26c1.06.84,2.57-.66,1.5-1.51A121.21,121.21,0,0,0,308.14,2.53a1.06,1.06,0,0,0-.56,2.05Z"/></g></g></svg>