<svg xmlns="http://www.w3.org/2000/svg" viewBox="0 0 505.07 240"><defs><style>.cls-1{fill:#9f6cc7;}.cls-2{fill:#415464;}.cls-3{fill:#45d6ad;}</style></defs><title>dresscode</title><g id="Layer_2" data-name="Layer 2"><g id="Layer_1-2" data-name="Layer 1"><path class="cls-1" d="M379.27,189v7.68a.93.93,0,0,0,1.85,0V189a.93.93,0,0,0-1.85,0Z"/><path class="cls-1" d="M34.41,180.68c-2.41-9,3-19.9,13.2-19.63a.93.93,0,0,0,0-1.86c-11.46-.3-17.71,11.86-15,22a.93.93,0,0,0,1.8-.5Z"/><path class="cls-2" d="M294,185.32a6.31,6.31,0,1,1-6.56-6.29,6.38,6.38,0,0,1,6.56,6.29c0,1.19,1.9,1.2,1.85,0a8.16,8.16,0,1,0-8.15,8.16,8.26,8.26,0,0,0,8.15-8.16C295.93,184.12,294.07,184.13,294,185.32Z"/><path class="cls-2" d="M133.21,41.89a6.3,6.3,0,1,1-6.56-6.29,6.38,6.38,0,0,1,6.56,6.29c0,1.19,1.9,1.2,1.86,0a8.16,8.16,0,1,0-8.16,8.16,8.27,8.27,0,0,0,8.16-8.16C135.11,40.69,133.25,40.69,133.21,41.89Z"/><path class="cls-2" d="M145.41,179l5.91,5c.9.77,2.22-.54,1.31-1.31l-5.91-5c-.91-.76-2.23.54-1.31,1.32Z"/><path class="cls-2" d="M151.63,171.77l3.89,5.07c.72.93,2.33,0,1.6-.94l-3.88-5.06c-.72-.94-2.34,0-1.61.93Z"/><path class="cls-2" d="M160.69,165.12l1.87,5.15c.4,1.12,2.2.64,1.79-.49l-1.87-5.15c-.4-1.11-2.19-.63-1.79.49Z"/><path class="cls-3" d="M214.63,68.87a190.17,190.17,0,0,0-4.81-19.26C209,46.77,208,43.94,207.44,41c-.27-1.28-.78-3.24.33-4.29.93-.87,1.56-.81,2.33,0,1.77,1.76,2.67,4.69,3.53,6.94C216.06,50,218,56.57,220,63.08a.93.93,0,0,0,1.79-.49q-2.48-10.12-5.09-20.2c-1.17-4.47-2.34-8.94-3.63-13.38-.56-1.92-1.33-3.84-1.72-5.8-.22-1.16-.48-6.26,2-5.51.73.22,1.29,1.4,1.61,2a29.39,29.39,0,0,1,1.72,4c1.47,4,2.68,8.07,4,12.11l1.79-.5a60.58,60.58,0,0,1-3.58-13.66c-.18-1.49-.79-5.46,1.26-6,2.69-.71,4.08,5.06,4.58,6.71,1.29,4.28,2.1,8.71,3.7,12.9.42,1.1,2.18.66,1.79-.49-.68-2-1.26-4.12-1.77-6.21-.78-3.17-1.79-6.88-1.2-10.16.2-1.07.65-2,1.89-1.91s1.91,1.58,2.33,2.62c2,4.91,2.9,10.34,4.52,15.38.37,1.14,2.16.65,1.79-.49-.74-2.32-1.37-4.68-1.89-7a36.59,36.59,0,0,1-.91-5.59c0-.66-.32-3,.49-3.36,1.28-.58,3.2,3.4,3.58,4.13A74.68,74.68,0,0,1,243.88,35c2.21,7.32,3.94,14.78,5.49,22.27.24,1.17,2,.67,1.79-.5-1.56-7.57-3.32-15.11-5.57-22.51a69.38,69.38,0,0,0-5.38-13.81c-.93-1.68-2.7-4.74-5.07-4.24-3.1.65-2,6-1.68,8.1A70.24,70.24,0,0,0,236,34.48l1.79-.49c-1.56-4.86-2.55-9.92-4.27-14.72-.74-2.07-1.9-4.67-4.48-4.64-6.14.07-3.28,10.57-2.5,13.89.54,2.26,1.16,4.52,1.9,6.73l1.79-.49c-1.65-4.33-2.46-8.92-3.83-13.33-.81-2.59-2-7-5.16-7.62-7-1.46-3.64,11.58-2.88,14.49.66,2.53,1.42,5,2.33,7.5.4,1.1,2.16.65,1.79-.5-1.32-4-2.53-8.11-4-12.1-.79-2.15-1.61-4.73-3.27-6.4a2.87,2.87,0,0,0-3.88-.43c-2.05,1.4-2.25,4.26-1.93,6.49a51.66,51.66,0,0,0,1.95,7c.7,2.44,1.37,4.89,2,7.34q2.15,8.06,4.17,16.15,1.23,4.89,2.43,9.78l1.79-.49c-2-6.57-3.92-13.19-6.38-19.6-1-2.55-2-5.72-4-7.68a3.12,3.12,0,0,0-3.85-.59c-3.75,2-1.83,7.17-1,10.28,2.28,8.11,4.75,16.07,6.32,24.36.22,1.17,2,.68,1.79-.49Z"/><path class="cls-2" d="M286.2,71.37h11.22c2.46,0,4.92.48,5.13,3.53a5.8,5.8,0,0,1,0,.59c.07,4.14,0,8.3,0,12.45V195.31c0,2.33-.66,4.61-3.54,4.79-4.95.32-10,0-15,0H234a.93.93,0,0,0,0,1.86h45c6.49,0,13,.06,19.47,0,3.23,0,5.79-2.07,5.92-5.44,0-1.06,0-2.13,0-3.2V76.2c0-2-.18-3.81-1.75-5.26s-3.25-1.43-5.11-1.43H286.2a.93.93,0,0,0,0,1.86Z"/><path class="cls-2" d="M208.14,140.2V86.53c0-3.83-.16-7.69,0-11.51.17-4.31,4.66-3.65,7.66-3.65h9.9a.93.93,0,0,0,0-1.86h-8.85c-2.78,0-6.59-.64-8.83,1.43-2.71,2.52-1.74,8.08-1.74,11.4V140.2a.93.93,0,0,0,1.86,0Z"/><path class="cls-3" d="M208.14,148.83v-5a.93.93,0,0,0-1.86,0v5a.93.93,0,0,0,1.86,0Z"/><path class="cls-3" d="M226.76,200.1H215.67a.93.93,0,0,0,0,1.86h11.09a.93.93,0,0,0,0-1.86Z"/><path class="cls-3" d="M357.86,215.88a9.32,9.32,0,1,1-9.31-9.31,9.42,9.42,0,0,1,9.31,9.31.93.93,0,0,0,1.86,0,11.36,11.36,0,0,0-7.28-10.47,11.25,11.25,0,0,0-12.58,3.46c-6.38,7.92.73,19.76,10.69,18a11.3,11.3,0,0,0,9.17-11A.93.93,0,0,0,357.86,215.88Z"/><path class="cls-2" d="M364.52,102.19a9.83,9.83,0,1,1-9.83-9.82,9.94,9.94,0,0,1,9.83,9.82.93.93,0,0,0,1.85,0,11.68,11.68,0,1,0-9.64,11.5,11.83,11.83,0,0,0,9.64-11.5A.93.93,0,0,0,364.52,102.19Z"/><path class="cls-2" d="M398.11,81.2a9.83,9.83,0,1,1-9.83-9.83,9.94,9.94,0,0,1,9.83,9.83.93.93,0,0,0,1.86,0,11.69,11.69,0,1,0-9.65,11.49A11.87,11.87,0,0,0,400,81.2.93.93,0,0,0,398.11,81.2Z"/><path class="cls-3" d="M333.79,45.09a12.13,12.13,0,1,1-9.87-11.92,12.3,12.3,0,0,1,9.87,11.92.93.93,0,0,0,1.86,0,14,14,0,1,0-11.23,13.72,14.17,14.17,0,0,0,11.23-13.72A.93.93,0,0,0,333.79,45.09Z"/><path class="cls-1" d="M188.08,189.89a13.41,13.41,0,1,1-16.2-4.86c1.09-.48.15-2.08-.94-1.6A15.27,15.27,0,1,0,189.68,189c-.64-1-2.25-.07-1.6.93Z"/><path class="cls-3" d="M164.22,211.36a19,19,0,0,1-5.83-16.5c.17-1.17-1.62-1.67-1.79-.49a20.86,20.86,0,0,0,6.31,18.3c.87.82,2.18-.49,1.31-1.31Z"/><path class="cls-3" d="M384.64,136.1a4.45,4.45,0,1,1-4.45-4.45,4.51,4.51,0,0,1,4.45,4.45c.06,1.19,1.92,1.19,1.86,0a6.31,6.31,0,1,0-6.31,6.3,6.41,6.41,0,0,0,6.31-6.3C386.56,134.9,384.7,134.9,384.64,136.1Z"/><path class="cls-3" d="M361,127.15a4.45,4.45,0,1,1-4.45-4.45,4.51,4.51,0,0,1,4.45,4.45c.06,1.19,1.92,1.2,1.86,0a6.31,6.31,0,1,0-6.31,6.31,6.4,6.4,0,0,0,6.31-6.31C362.91,126,361.05,126,361,127.15Z"/><path class="cls-3" d="M413,126.41A4.45,4.45,0,1,1,408.5,122a4.51,4.51,0,0,1,4.45,4.45c.06,1.19,1.91,1.2,1.86,0a6.31,6.31,0,1,0-6.31,6.3,6.42,6.42,0,0,0,6.31-6.3C414.86,125.21,413,125.22,413,126.41Z"/><path class="cls-3" d="M438.45,136.1a4.45,4.45,0,1,1-4.45-4.45,4.51,4.51,0,0,1,4.45,4.45c.06,1.19,1.92,1.19,1.86,0a6.31,6.31,0,1,0-6.31,6.3,6.41,6.41,0,0,0,6.31-6.3C440.37,134.9,438.51,134.9,438.45,136.1Z"/><path class="cls-3" d="M465.88,126.41a4.45,4.45,0,1,1-4.45-4.45,4.52,4.52,0,0,1,4.45,4.45c.05,1.19,1.91,1.2,1.85,0a6.31,6.31,0,1,0-6.3,6.3,6.41,6.41,0,0,0,6.3-6.3C467.79,125.21,465.93,125.22,465.88,126.41Z"/><path class="cls-3" d="M491,136.1a4.45,4.45,0,1,1-4.45-4.45A4.51,4.51,0,0,1,491,136.1c.06,1.19,1.92,1.19,1.86,0a6.31,6.31,0,1,0-6.31,6.3,6.41,6.41,0,0,0,6.31-6.3C492.92,134.9,491.06,134.9,491,136.1Z"/><path class="cls-3" d="M451.26,147.8a4.46,4.46,0,1,1,8.12-2.77c.16,1.18,1.95.68,1.79-.49a6.3,6.3,0,1,0-11.51,4.2.93.93,0,0,0,1.6-.94Z"/><path class="cls-3" d="M484.76,115.68c1.89,3,.16,7.09-3.58,7.09a4.49,4.49,0,0,1-3.24-7.5c.77-.9-.54-2.22-1.31-1.31-3.32,3.87-1.37,10.21,4,10.65s8.48-5.52,5.71-9.86c-.64-1-2.25-.08-1.61.93Z"/><path class="cls-3" d="M334.38,131.87c3.34,1.46,4.18,6.16.72,8.1s-7.36-1.48-6.42-5.21a.93.93,0,0,0-1.79-.49c-1.29,5.08,3.72,9.89,8.71,7.53a6.35,6.35,0,0,0-.28-11.53c-1.09-.47-2,1.13-.94,1.6Z"/><path class="cls-2" d="M255.34,59.08h15.5a11.84,11.84,0,0,1,8.25,2.9c6.21,5.38,5,14.55,5,21.92v42.51l.93-.93a134,134,0,0,1-15.13-2.73,54.91,54.91,0,0,1-10.75-3.5c-.61-.3-1.22-.62-1.81-1a9.74,9.74,0,0,1-1-.69c-.13-.1.12.78,0,.12a22.61,22.61,0,0,1,0-3.68l-.68.9a24.59,24.59,0,0,0,8-5.06c6.16-5.34,10.69-12.65,13.6-20.21,2.43-6.31,4.13-14.32.84-20.66-1-2-3.23-4.77-5.59-5.2a26.79,26.79,0,0,0-4-.11l-13.13-.36c-1.19,0-1.19,1.82,0,1.85l10,.28,5.77.16c1.64,0,2.34.59,3.61,1.9,4.73,4.91,3.47,13.1,1.63,19A50.26,50.26,0,0,1,264,107.06c-2.46,2.39-5.52,5-8.85,6.08a.94.94,0,0,0-.68.89,23.69,23.69,0,0,0,0,3.86c.21,1.26,1.75,1.92,2.82,2.48a47.44,47.44,0,0,0,10.86,3.85A132.44,132.44,0,0,0,285,127.34a.94.94,0,0,0,.93-.93V85c0-7.62,1.22-16.64-4.1-22.89a13.8,13.8,0,0,0-9.3-4.88c-5.7-.27-11.47,0-17.18,0a.93.93,0,0,0,0,1.86Z"/><path class="cls-2" d="M255.34,57.22H239.29a13.6,13.6,0,0,0-8.79,3.26c-6.32,5.28-5.73,13.83-5.73,21.28v44.65a.93.93,0,0,0,.93.93,132.76,132.76,0,0,0,16.89-3.12,47.92,47.92,0,0,0,10.86-3.85c1-.55,2.63-1.23,2.82-2.48a26.18,26.18,0,0,0,0-3.86.94.94,0,0,0-.68-.89,22.33,22.33,0,0,1-7.22-4.58,49,49,0,0,1-13-19.09c-2.37-6.06-4.4-14.25-.74-20.24.88-1.44,2.59-3.35,4.06-3.59a37.52,37.52,0,0,1,4.86-.13l11.8-.33a.93.93,0,0,0,0-1.85l-11.45.31c-1.77,0-3.57,0-5.33.15s-3.68,2-4.79,3.42c-4.13,5.37-3.25,13.09-1.44,19.16a51.77,51.77,0,0,0,13.1,22c2.69,2.63,6,5.37,9.67,6.56l-.68-.9a22.61,22.61,0,0,1,0,3.68c-.1.56,0-.13,0-.12a7.41,7.41,0,0,1-.9.6,20.39,20.39,0,0,1-2,1.06,54.6,54.6,0,0,1-10.74,3.5,134,134,0,0,1-15.13,2.73l.93.93V87.24c0-3.87,0-7.75,0-11.62,0-4.18.65-8.54,3.32-11.92,2-2.53,5.56-4.61,8.49-4.62,5.63,0,11.27,0,16.9,0a.93.93,0,0,0,0-1.86Z"/><path class="cls-2" d="M262.92,122.72V201a.93.93,0,0,0,1.86,0V122.72a.93.93,0,0,0-1.86,0Z"/><path class="cls-2" d="M245.46,122.72V201a.93.93,0,0,0,1.86,0V122.72a.93.93,0,0,0-1.86,0Z"/><path class="cls-3" d="M277.1,49.25V6.8c0-.29,0-.58,0-.87s-.39.46.1-.06c1.49-1.59,2.9-4,5.53-3.22,1.78.56,3.08,2.39,4.69,3.32a6.53,6.53,0,0,0,3.48,1c3.12-.15,3.82-3.34,6.16-4.7,3.59-2.09,5.25,2.93,8.09,4.07a5.24,5.24,0,0,0,3.93,0c1.76-.7,2.68-2.17,4.09-3.32a4.32,4.32,0,0,1,5.1-.42,3.41,3.41,0,0,1,1.25,1.25c.2.38,0-.26.08.09a18.69,18.69,0,0,1,.13,3.26l1,24.81c0,1.19,1.91,1.19,1.86,0l-.94-23.32c-.12-3,.45-5.92-2.45-7.7a6.31,6.31,0,0,0-7.78,1.12c-1.49,1.42-3,3.38-5.37,2.6-1.82-.6-2.56-2.44-4-3.57-2.52-2-5.74-1.27-7.74,1.08-.87,1-1.62,2.49-3,2.83-1.87.45-3.81-1.21-5.11-2.3C284,1,281.69-.13,279,1.44a9.19,9.19,0,0,0-3.63,3.86,4.68,4.68,0,0,0-.14,1.75v42.2a.93.93,0,0,0,1.86,0Z"/><path class="cls-3" d="M320.73,58.15V125.1a.93.93,0,0,0,1.86,0V58.15a.93.93,0,0,0-1.86,0Z"/><path class="cls-1" d="M327.78,119.11v6a.93.93,0,0,0,1.86,0v-6a.93.93,0,0,0-1.86,0Z"/><path class="cls-1" d="M327.78,104.67V113a.93.93,0,0,0,1.86,0v-8.28a.93.93,0,0,0-1.86,0Z"/><path class="cls-1" d="M327.78,89v9.09a.93.93,0,0,0,1.86,0V89a.93.93,0,0,0-1.86,0Z"/><path class="cls-1" d="M327.78,75.87V83a.93.93,0,0,0,1.86,0v-7.1a.93.93,0,0,0-1.86,0Z"/><path class="cls-1" d="M327.78,62.62v7.06a.93.93,0,0,0,1.86,0V62.62a.93.93,0,0,0-1.86,0Z"/><path class="cls-1" d="M327.19,37.62Q321.45,44,315.62,50.23c-.81.87.5,2.19,1.32,1.31q5.82-6.27,11.57-12.6c.8-.89-.51-2.2-1.32-1.32Z"/><path class="cls-3" d="M271,20.45c1.42-2.43,4.22-5.41,7.31-4.62,2.73.69,5.06,2.64,7.78,3.46a7.8,7.8,0,0,0,6.49-.75C295,17.07,297.2,15,300.21,15c2.6,0,4.61,1.72,6.8,2.86a7.54,7.54,0,0,0,5.51,1c2.82-.78,4.32-3.78,7.23-4.29,2.54-.45,4.33,1.09,6.23,2.48a11.65,11.65,0,0,0,6,2.24,8.21,8.21,0,0,0,5.85-1.86,10.34,10.34,0,0,1,8.34-2.29c2.42.46,4.31,2.17,6.53,3.13a10.52,10.52,0,0,0,6.49.8c2.93-.68,4.7-3.32,7.5-4.11,2.47-.69,4.95.29,7,1.64a16.19,16.19,0,0,0,4.37,2.4,11.62,11.62,0,0,0,7.37-.28c3.07-1.18,5.23-4.07,8.83-3.39a8.5,8.5,0,0,1,4.13,2.1c.87.82,2.18-.49,1.31-1.31a9.49,9.49,0,0,0-9-2.41c-3.07,1-5.06,3.57-8.46,3.88a9.46,9.46,0,0,1-6-1.48c-3.39-2.3-7.1-4.4-11.24-2.46-1.42.67-2.46,1.81-3.79,2.62a7.65,7.65,0,0,1-4.73,1.13c-2.79-.28-4.85-2-7.26-3.21a11.14,11.14,0,0,0-6.92-.86A12.61,12.61,0,0,0,339,14.44c-1.3.65-2.29,1.75-3.57,2.4-2.43,1.23-5.54.48-7.74-.91-1.9-1.2-3.35-2.74-5.66-3.19a7.65,7.65,0,0,0-6.28,1.77c-1.28,1-2.42,2.35-4.13,2.64a6.26,6.26,0,0,1-3.86-1c-2.07-1.11-4-2.55-6.34-2.9a10.12,10.12,0,0,0-6.21,1.37c-1.66.9-3.13,2.43-4.95,3a7,7,0,0,1-4.71-.48c-2.68-1.06-5.42-3.38-8.42-3.29-3.32.1-6.14,3-7.72,5.68a.93.93,0,0,0,1.6.94Z"/><path class="cls-3" d="M202.5,74.28l-26.89-10.9-3.88-1.57a.92.92,0,0,0-1,.42L158.33,85.3l-20.6,38.49L132,134.44a4.54,4.54,0,0,0-.79,2.5c.16,2.38,2.67,1.89,4.26,1.33,11.46-4,22.76-8.53,34.11-12.85,10.77-4.11,21.57-8.19,32.32-12.37l.57-.21c1.11-.43.63-2.22-.49-1.79l-26.23,10c-12.5,4.77-25,9.58-37.53,14.22-1.29.48-2.59,1-3.91,1.41-.87.26-1.43.38-1.07-.7-.15.44.08-.1.15-.23,1.65-3,3.26-6.1,4.89-9.15L158,89.82l9.15-17.08,3.15-5.89a20.36,20.36,0,0,0,1.74-3.25,2.93,2.93,0,0,1,.23-.43l-1.05.43,26.89,10.9L202,76.07c1.11.45,1.59-1.34.49-1.79Z"/><path class="cls-3" d="M202.72,82c-9-4-17.95-8.3-27.08-12-4-1.62-6.16,5-7.57,7.71q-4.74,9-9.45,17.94-5,9.56-10,19.13l-3.42,6.55a26,26,0,0,0-1.43,2.71c-.8,2.21.87,3.83,3,3.14,1.33-.41,2.63-1,3.93-1.49L168.22,119c11.21-4.31,22.44-8.59,33.64-12.94l.64-.25c1.11-.43.63-2.22-.49-1.79l-27.08,10.42-19,7.28-6.7,2.56a17.31,17.31,0,0,1-3.14,1.19c-.64.1-.4.09-.71-.27,0,0,0-.61,0-.28s0,0,.05-.08a8.78,8.78,0,0,1,.61-1.18q1.34-2.53,2.66-5.09l8.88-16.94q4.86-9.26,9.74-18.51,1.81-3.43,3.64-6.87a34.86,34.86,0,0,1,2-3.71c1.09-1.54,2.38-.59,3.72,0l7.38,3.25,16.61,7.31,1.12.49c1.08.48,2-1.12.93-1.6Z"/><path class="cls-1" d="M210.13,93.18l10.47-4c1.11-.41.63-2.21-.49-1.79l-10.48,4c-1.1.41-.62,2.21.5,1.79Z"/><path class="cls-1" d="M289.15,89.13l9.3,4c1.08.46,2-1.13.93-1.6l-9.29-4c-1.09-.46-2,1.13-.94,1.6Z"/><path class="cls-2" d="M246.39,135.17c-4.57-.37-9.54,1.4-13.33,3.81-3.47,2.22-5.88,5.45-9,8.1a29.06,29.06,0,0,1-10.25,5.8,24,24,0,0,1-12.62.43c-5.24-1.25-9.37-4.18-13.76-7.13-6.18-4.15-13.42-8.46-21.16-7.91-8.57.6-14.53,7-22.23,10a25,25,0,0,1-13.55,1.41c-5.12-1-9.13-3.62-13.58-6.09a21.37,21.37,0,0,0-21.62.09c-3.38,1.88-6.28,4.53-10,5.83a23.37,23.37,0,0,1-13.58.44,27.87,27.87,0,0,1-7.17-3,26.36,26.36,0,0,0-6.11-3c-2.84-.81-6-.68-8.37,1.3-4.17,3.52-2.89,9.43-2.94,14.22-.06,6-1.45,12.11-6.07,16.34-3.45,3.16-8,4.6-12.33,6.08a102.33,102.33,0,0,1-14.09,3.87c-2.9.54-16.06,2.47-11.9-4.29,1.76-2.87,4.73-5.15,7.42-7.09a59.06,59.06,0,0,1,8.29-4.91c6.6-3.29,9.84-10.48,10.23-17.57.19-3.51,0-7,.2-10.53a54.7,54.7,0,0,1,1.71-10.87c.82-3,2-6.18,4.38-8.26,3.15-2.77,8.42-2.48,12.18-1.43,8.19,2.28,14.45,8.66,22.6,11a22.83,22.83,0,0,0,10.58.56c4.68-.87,8.55-3.28,12.41-5.94a36.12,36.12,0,0,1,25-6.39,63.91,63.91,0,0,1,14.12,3.53c1.13.4,1.61-1.4.49-1.79-8.58-3-17.78-5-26.84-3.07a37.65,37.65,0,0,0-11.65,4.77c-4.43,2.72-8.28,5.89-13.5,7-8.34,1.77-15.31-2.46-22.17-6.54-4.16-2.48-8.58-4.89-13.45-5.55-3.44-.46-7.61-.17-10.46,2-5.1,3.89-6.29,11.74-7,17.66a81.62,81.62,0,0,0-.49,10.25c.06,4.43-.31,8.77-2.44,12.74a16.92,16.92,0,0,1-7.87,7.27,51.89,51.89,0,0,0-8.44,5.28c-2.88,2.19-11,8.39-7.06,12.75,1.53,1.67,4.14,2,6.28,2a46.19,46.19,0,0,0,11.8-1.68,126.73,126.73,0,0,0,15.21-4.83,23.46,23.46,0,0,0,9.29-6c4-4.42,5.29-10.28,5.38-16.08.08-4.81-1.66-13.21,5-14.39,4.79-.85,8.81,3,12.89,4.76a27.19,27.19,0,0,0,13.34,2.29,23.4,23.4,0,0,0,11.37-4.23,33.87,33.87,0,0,1,9.53-5.11,18.34,18.34,0,0,1,13.08,1.13c4.45,2.06,8.24,5.05,13,6.49,9.47,2.87,18.49-.33,26.46-5.56A30.13,30.13,0,0,1,164,140.44a19.94,19.94,0,0,1,10.65.95c9.2,3.23,16,11.09,25.48,13.57a27.23,27.23,0,0,0,22.77-4.62c3.2-2.3,5.55-5.37,8.53-7.89A23.28,23.28,0,0,1,242,137.37a16.88,16.88,0,0,1,4.37-.35c1.19.1,1.18-1.76,0-1.85Z"/><path class="cls-1" d="M18.87,146.56a44.34,44.34,0,0,1-.08,9.07c-.18,1.17,1.61,1.67,1.79.49a46.28,46.28,0,0,0,.15-9.56c-.06-1.19-1.92-1.2-1.86,0Z"/><path class="cls-1" d="M19.66,130.26a50.75,50.75,0,0,0-1,9.19.93.93,0,0,0,1.86,0,48.92,48.92,0,0,1,.91-8.7c.24-1.16-1.55-1.66-1.79-.49Z"/><path class="cls-1" d="M26.63,116.31a23.87,23.87,0,0,0-5.29,8.23c-.44,1.11,1.36,1.59,1.79.49a21.53,21.53,0,0,1,4.82-7.4.93.93,0,0,0-1.32-1.32Z"/><path class="cls-1" d="M43.39,109.09A34.59,34.59,0,0,0,32.93,112c-1.08.5-.14,2.1.94,1.6a32.14,32.14,0,0,1,9.52-2.61c1.17-.14,1.19-2,0-1.85Z"/><path class="cls-3" d="M92,109.54c-3.64,6.17-11.54,9.93-18.55,9.49-4.19-.26-6.66-2.74-9.64-5.32A20,20,0,0,0,51.75,109c-1.19-.1-1.18,1.76,0,1.86a17.85,17.85,0,0,1,10.9,4.32c2.13,1.86,4.08,3.9,6.78,4.93,6.89,2.64,15.4-.55,20.57-5.31a19.63,19.63,0,0,0,3.63-4.29.93.93,0,0,0-1.61-.93Z"/><path class="cls-1" d="M105.06,70.44V82.89a.93.93,0,0,0,1.85,0V70.44a.93.93,0,0,0-1.85,0Z"/><path class="cls-1" d="M112.14,72.25,100,77.08c-1.1.43-.62,2.23.49,1.79L112.63,74c1.1-.43.62-2.23-.49-1.79Z"/><path class="cls-3" d="M104.86,58.76A233.93,233.93,0,0,1,89.09,76.85a.93.93,0,0,0,1.32,1.32,240,240,0,0,0,15.77-18.09c.74-.93-.56-2.25-1.32-1.32Z"/><path class="cls-3" d="M142.26,101.42c-2.49,3.28-7.63,3-11.24,2.44a52.69,52.69,0,0,1-16.89-6.35C103.47,91.6,92.52,82.89,86.8,71.86c-1.58-3-3.25-7.27-1.66-10.64s6.18-3.9,9.57-3.66c5.88.42,11.65,2.74,16.84,5.39a82.43,82.43,0,0,1,17.33,11.93c4.74,4.24,9.21,9.09,12.19,14.76,1.8,3.42,3.65,8.22,1.19,11.78-.68,1,.93,1.91,1.61.93,2.24-3.25,1.46-7.49.08-10.92-2.19-5.42-6-10.15-10-14.3a83.3,83.3,0,0,0-18.27-14.07c-5.81-3.32-12.22-6.18-18.9-7.13-3.92-.56-8.8-.57-11.82,2.43-2.73,2.72-2.57,6.82-1.5,10.25,1.64,5.21,5,9.82,8.65,13.84a81.42,81.42,0,0,0,17.34,14.44c6.46,4,13.74,7.62,21.34,8.8,4.54.71,10.07.67,13.11-3.34C144.59,101.4,143,100.48,142.26,101.42Z"/><path class="cls-2" d="M209.18,181.17h-7.53c-3,0-7.49.7-7.78-3.53-.15-2,.18-4.23,2.37-5a9.34,9.34,0,0,1,3-.19h9.17c2.07,0,4,.86,4.27,3.17.31,2.56-.43,5.4-3.49,5.56-1.19.07-1.2,1.92,0,1.86a5.49,5.49,0,0,0,5.32-4.66c.29-2.06.11-4.45-1.36-6-2.52-2.71-7.65-1.75-10.95-1.75-3.58,0-8.29-.7-9.84,3.52s.74,8.85,5.4,8.93c3.81.06,7.62,0,11.43,0A.93.93,0,0,0,209.18,181.17Z"/><path class="cls-2" d="M211.13,172.31c3.69-2.28,11-6,15-2.73,3.12,2.52,3,9.37.85,12.43s-6.09,2.47-9.1,1.66a28.18,28.18,0,0,1-6.74-2.78.93.93,0,0,0-.94,1.6c4.67,2.7,13.18,6.11,17.63,1.41,3.13-3.31,3.27-10.2,1-14-2.14-3.55-6.42-3.71-10.06-2.84a29.82,29.82,0,0,0-8.56,3.64c-1,.62-.08,2.23.94,1.6Z"/><path class="cls-2" d="M196.25,170.71c-4.52-2.8-13.1-6.71-17.63-2.08-3.2,3.27-3.2,10.17-1,14,2.1,3.58,6.34,3.94,10.05,3.21a28.42,28.42,0,0,0,8.56-3.3.93.93,0,0,0-.94-1.6c-3.81,2.2-11.06,5.44-15,2.07-3-2.59-3.08-9.4-.85-12.47,2.09-2.87,6.18-2.15,9.11-1.25a29.86,29.86,0,0,1,6.73,3.07c1,.63,2-1,.94-1.6Z"/><path class="cls-3" d="M74.93,205.39a.93.93,0,0,0,0-1.86.93.93,0,0,0,0,1.86Z"/><path class="cls-3" d="M74.93,212.94a.93.93,0,0,0,0-1.85.93.93,0,0,0,0,1.85Z"/><path class="cls-3" d="M268.87,26a.93.93,0,0,0,0-1.85.93.93,0,0,0,0,1.85Z"/><path class="cls-3" d="M79.91,166.45v37a1,1,0,0,0,.68.9,8.26,8.26,0,0,0,5.13-.26c1.61-.66,2.71-1.9,4.55-2.05a6.71,6.71,0,0,1,4.08,1.18c3.61,2.08,9.08,2.71,12.85.76,1.37-.71,2.45-1.68,4-2a8.63,8.63,0,0,1,4.64.36c1.87.64,3.46,1.72,5.41,2.2a13.5,13.5,0,0,0,7.27,0,19.6,19.6,0,0,0,3.38-1.8,9.93,9.93,0,0,1,5.31-1.23c2.82.16,4.49,1.95,6.95,3,2.73,1.14,5,.07,6.81-2.15.73-.93-.57-2.25-1.32-1.31-1,1.26-2.19,2.39-3.91,2a9.41,9.41,0,0,1-3.06-1.55,11,11,0,0,0-5.47-1.87c-3-.16-5.29,1.05-7.82,2.49s-5.28,1.2-7.86.53c-1.86-.49-3.4-1.54-5.2-2.15a10.07,10.07,0,0,0-7.25.18c-1.08.47-2,1.27-3,1.77a9.85,9.85,0,0,1-4.16.75,13.86,13.86,0,0,1-6.38-1.47c-2.36-1.31-4.65-2.12-7.35-1.14-1.49.53-2.56,1.75-4.16,2a6.74,6.74,0,0,1-2.93-.11l.68.89v-37a.93.93,0,0,0-1.85,0Z"/><path class="cls-3" d="M80.59,215.23a8.26,8.26,0,0,0,5.13-.25c1.61-.66,2.71-1.91,4.55-2.06a6.77,6.77,0,0,1,4.08,1.18c3.61,2.08,9.08,2.71,12.85.76,1.37-.71,2.45-1.68,4-2a8.63,8.63,0,0,1,4.64.36c1.87.64,3.46,1.72,5.41,2.2a13.5,13.5,0,0,0,7.27,0,19.6,19.6,0,0,0,3.38-1.8,10,10,0,0,1,5.31-1.23c2.82.16,4.49,2,6.95,3,2.73,1.14,5,.07,6.81-2.15.73-.92-.57-2.24-1.32-1.31-1,1.26-2.19,2.39-3.91,2a9.41,9.41,0,0,1-3.06-1.55,11,11,0,0,0-5.47-1.87c-3-.16-5.29,1.05-7.82,2.49s-5.28,1.2-7.86.53c-1.86-.49-3.4-1.54-5.2-2.15a10,10,0,0,0-7.25.19c-1.08.46-2,1.27-3,1.76a9.7,9.7,0,0,1-4.16.75,13.86,13.86,0,0,1-6.38-1.47c-2.36-1.3-4.65-2.12-7.35-1.14-1.49.54-2.56,1.76-4.16,2.06a6.9,6.9,0,0,1-2.93-.12.93.93,0,0,0-.49,1.79Z"/><path class="cls-3" d="M100.43,166.45v24a.93.93,0,0,0,1.85,0v-24a.93.93,0,0,0-1.85,0Z"/><path class="cls-3" d="M118.6,166.45v16.66a.93.93,0,0,0,1.86,0V166.45a.93.93,0,0,0-1.86,0Z"/><path class="cls-1" d="M87,156.73a25.32,25.32,0,0,1-10.27,1.13c-1.19-.1-1.18,1.76,0,1.85a26.38,26.38,0,0,0,10.77-1.19c1.12-.38.64-2.18-.5-1.79Z"/><path class="cls-1" d="M98.11,151.16c-2.41,1.11-4.66,2.57-7,3.78-1.06.54-.13,2.14.94,1.6,2.36-1.21,4.6-2.66,7-3.77,1.09-.5.15-2.11-.93-1.61Z"/><path class="cls-1" d="M110.77,149.83a21.82,21.82,0,0,0-7.43-.27c-1.18.16-.67,1.95.5,1.79a19,19,0,0,1,6.43.27c1.17.24,1.67-1.55.5-1.79Z"/><path class="cls-1" d="M120.83,153.72c-2.07-1-4.13-2-6.29-2.79-1.13-.42-1.61,1.38-.5,1.79,2,.74,3.92,1.67,5.85,2.6,1.07.52,2-1.08.94-1.6Z"/><path class="cls-1" d="M131.44,157.34a53.39,53.39,0,0,1-6.37-1.84c-1.13-.41-1.61,1.39-.5,1.79a56.54,56.54,0,0,0,6.37,1.85c1.17.25,1.66-1.54.5-1.8Z"/><path class="cls-1" d="M144.23,157.63a24.38,24.38,0,0,1-6.43.56c-1.2,0-1.19,1.82,0,1.86a26.45,26.45,0,0,0,6.93-.63c1.16-.28.67-2.07-.5-1.79Z"/><path class="cls-1" d="M155.69,151.59c-2.21,1.3-4.38,2.66-6.61,3.92a.93.93,0,0,0,.94,1.61c2.23-1.26,4.4-2.63,6.6-3.93a.93.93,0,0,0-.93-1.6Z"/><path class="cls-1" d="M164,147.57a37.56,37.56,0,0,0-5.08,2.22c-1.06.55-.12,2.15.94,1.6a34,34,0,0,1,4.63-2c1.13-.39.64-2.18-.49-1.79Z"/><path class="cls-3" d="M196.78,159c-3.74-2.48-7.62-4.77-11.57-6.89-5.57-3-11.76-6.31-18.25-5.29-1.18.18-.68,2,.5,1.79,6.27-1,12.65,2.82,17.95,5.72,3.55,1.95,7.06,4,10.43,6.28,1,.66,1.93-1,.94-1.61Z"/><path class="cls-2" d="M303.48,128.69a24.91,24.91,0,0,1,10.24,3.9A17.41,17.41,0,0,0,323.3,135a23.54,23.54,0,0,0,11.78-3.54c4-2.48,6.9-6.12,11.41-7.85a22.18,22.18,0,0,1,14-.43c5.38,1.54,9.61,5.34,14.91,7,8.08,2.48,15.61-1.22,21.13-7.07a28.14,28.14,0,0,1,4.57-4.36,17.43,17.43,0,0,1,6.6-2.66c5.3-1,10.65.51,15.28,3.07,5.4,3,10.61,6.53,17,7a26.44,26.44,0,0,0,11.17-2c5.18-2,9.71-5.28,14.9-7.22,6.45-2.42,13.81-3.31,20.43-1a11.8,11.8,0,0,1,1.83.77c.4.22-.08-.19.38.34,1.56,1.83,3.22,3.58,4.82,5.36l10,11.13v-1.32l-14,12.5,1.12-.15a40.45,40.45,0,0,0-12.57-4.6,18.17,18.17,0,0,0-8.61.29,45.82,45.82,0,0,0-7.58,3.45c-6.37,3.36-13.19,6.53-20.59,5.21-6.6-1.17-12.16-6.08-17.82-9.34a22.45,22.45,0,0,0-8-3.19c-2.83-.39-5.75.44-8.42,1.34-6.35,2.15-12.55,6-19.31,6.66-8.09.84-15.9-4.28-22.94-7.5-5.85-2.68-11.95-3.81-18.3-2.28-8.51,2.06-15.4,8.68-24.61,8-3.93-.3-7.35-2.14-10.71-4.05-2.41-1.37-4.81-3.05-7.65-3.27-1.19-.1-1.18,1.76,0,1.85,2.69.21,5.16,2.16,7.44,3.43a29.53,29.53,0,0,0,8.52,3.57c6.95,1.37,13.63-1.39,19.65-4.62,6.78-3.63,14.13-4.92,21.49-2.35s13.83,7.3,21.64,8.73c6.73,1.23,12.72-1.35,18.84-3.87a67.29,67.29,0,0,1,9.23-3.33,12.76,12.76,0,0,1,8.75.71c6.17,2.7,11.28,7.33,17.48,10s12.9,1.92,19-.54,12.06-7.54,18.87-7.4c5.26.11,10.75,2.19,15.31,4.75a1,1,0,0,0,1.12-.15l14-12.49a1,1,0,0,0,0-1.32l-8.7-9.65-5.26-5.84a7.52,7.52,0,0,0-1.72-1.66c-4-2.36-9.72-2.61-14.21-2.15a40.46,40.46,0,0,0-13.18,3.83c-4.91,2.34-9.35,5.37-14.67,6.78a20.82,20.82,0,0,1-10.8.14,36.46,36.46,0,0,1-8.48-3.86c-3.72-2.13-7.37-4.31-11.61-5.25a21.33,21.33,0,0,0-13,1c-4,1.72-6.33,4.83-9.39,7.73s-6.92,5.32-11.23,5.8c-5.7.63-10-2.25-14.77-4.84a29.13,29.13,0,0,0-14-3.82,22.88,22.88,0,0,0-11.87,3.51,44,44,0,0,0-5.07,4.06,21.86,21.86,0,0,1-6.82,3.94,19.88,19.88,0,0,1-12.08.59c-1.95-.57-3.45-1.72-5.21-2.66a27.55,27.55,0,0,0-6.36-2.43,20.43,20.43,0,0,0-2.81-.51c-1.19-.13-1.18,1.73,0,1.85Z"/><path class="cls-3" d="M320.73,149v32a.93.93,0,0,0,1.86,0V149a.93.93,0,0,0-1.86,0Z"/><path class="cls-3" d="M320.73,200.31v25l.93-.93h-41l.93.93V205.64a.93.93,0,0,0-1.86,0v19.69a.94.94,0,0,0,.93.92h41a.94.94,0,0,0,.93-.92v-25a.93.93,0,0,0-1.86,0Z"/><path class="cls-2" d="M370.41,178.25h28.3a.93.93,0,0,0,0-1.86h-28.3a.93.93,0,0,0,0,1.86Z"/><path class="cls-2" d="M370.41,185h29.34a.93.93,0,0,0,0-1.85H370.41a.93.93,0,0,0,0,1.85Z"/><path class="cls-2" d="M371.21,176.39H342.92a.93.93,0,0,0,0,1.86h28.29a.93.93,0,0,0,0-1.86Z"/><path class="cls-2" d="M371.21,183.19H341.88a.93.93,0,0,0,0,1.85h29.33a.93.93,0,0,0,0-1.85Z"/><path class="cls-3" d="M370.1,189v13.89c0,3.28.39,8.83-3,10.59-1.74.91-4.52.27-6.46.28a16.12,16.12,0,0,0-2,.07c-1.16.15-1.18,2,0,1.85,2.62-.34,5.37.41,7.94-.09,3-.58,4.32-3.61,4.87-6.29.84-4.11.42-8.6.42-12.76V189a.93.93,0,0,0-1.85,0Z"/><path class="cls-1" d="M379.27,230.8v5.71a.93.93,0,0,0,1.85,0V230.8a.93.93,0,0,0-1.85,0Z"/><path class="cls-1" d="M379.27,220.8v5.32a.93.93,0,0,0,1.85,0V220.8a.93.93,0,0,0-1.85,0Z"/><path class="cls-1" d="M379.27,209.16v6.72a.93.93,0,0,0,1.85,0v-6.72a.93.93,0,0,0-1.85,0Z"/><path class="cls-1" d="M379.27,199.47v5.63a.93.93,0,0,0,1.85,0v-5.63a.93.93,0,0,0-1.85,0Z"/><path class="cls-1" d="M490.9,102.83c-6.6-4.68-16.07-6.55-23.48-2.82-6.41,3.22-12,8-19,9.91a17.76,17.76,0,0,1-9.83.07c-3.32-1-6.49-2.68-9.74-3.88a80.91,80.91,0,0,0-10.87-3.38c-1.17-.25-1.66,1.54-.5,1.79a73.61,73.61,0,0,1,8.51,2.53c5.89,2,11.72,5.77,18.14,5.45s12.06-3.61,17.35-6.77c3.11-1.86,6.18-4.19,9.7-5.21a18.65,18.65,0,0,1,8.66-.3A26.35,26.35,0,0,1,490,104.43c1,.69,1.91-.92.94-1.6Z"/><path class="cls-3" d="M371.88,116.41c-1.44-.62-2.86-1.28-4.24-2-1.05-.57-2,1-.93,1.6,1.37.76,2.8,1.41,4.23,2,1.09.47,2-1.13.94-1.6Z"/><path class="cls-3" d="M383.45,118.09a8.09,8.09,0,0,1-5.67.32c-1.17-.27-1.66,1.52-.5,1.79a13,13,0,0,0,3.66.51,10.23,10.23,0,0,0,3.45-1c1.09-.49.14-2.09-.94-1.61Z"/><path class="cls-3" d="M396.89,107.12a67.74,67.74,0,0,1-9.41,8.51c-1,.7,0,2.32.93,1.61a69.36,69.36,0,0,0,9.79-8.81c.81-.88-.5-2.19-1.31-1.31Z"/><path class="cls-3" d="M257.15,141.87c-.13,2.25-3.52,2.27-3.52,0s3.39-2.26,3.52,0c.06,1.19,1.92,1.19,1.85,0a3.62,3.62,0,1,0-3.76,3.61,3.68,3.68,0,0,0,3.76-3.61C259.07,140.67,257.21,140.68,257.15,141.87Z"/><path class="cls-3" d="M257.15,178.12c-.13,2.26-3.52,2.28-3.52,0s3.39-2.25,3.52,0c.06,1.19,1.92,1.2,1.85,0a3.62,3.62,0,1,0-3.76,3.61,3.67,3.67,0,0,0,3.76-3.61C259.07,176.93,257.21,176.93,257.15,178.12Z"/><path class="cls-1" d="M82.2,80.73A25.83,25.83,0,0,1,78,58.4a.93.93,0,0,0-1.79-.49A27.61,27.61,0,0,0,80.6,81.67c.7,1,2.31,0,1.6-.94Z"/><path class="cls-3" d="M79.27,91.62A35.93,35.93,0,0,1,68.82,74.48.93.93,0,0,0,67,75,37.79,37.79,0,0,0,78,92.93c.88.81,2.2-.5,1.32-1.31Z"/><path class="cls-1" d="M183.4,35.75a14.16,14.16,0,0,1-2.27,17.75c-.86.84.46,2.15,1.32,1.32a16.05,16.05,0,0,0,2.56-20c-.62-1-2.23-.09-1.61.93Z"/><path class="cls-1" d="M188.26,32.26A20,20,0,0,1,190.78,49a.93.93,0,0,0,1.79.5,21.87,21.87,0,0,0-2.71-18.18c-.65-1-2.26-.06-1.6.94Z"/><path class="cls-3" d="M329,28a18.87,18.87,0,0,1,11.33,13,.93.93,0,0,0,1.79-.5,20.81,20.81,0,0,0-12.63-14.27c-1.11-.44-1.59,1.36-.49,1.79Z"/><path class="cls-3" d="M350.73,103.93a4.67,4.67,0,0,1,2.45-6.22c1.08-.51.14-2.11-.94-1.61a6.48,6.48,0,0,0-3.3,8.32c.43,1.1,2.23.62,1.79-.49Z"/><path class="cls-3" d="M385.42,83.75a4.24,4.24,0,0,1,2.27-6.86.93.93,0,0,0-.5-1.79,6.08,6.08,0,0,0-3.37,9.59c.71.94,2.32,0,1.6-.94Z"/><path class="cls-1" d="M269.24,211.78v12a.93.93,0,0,0,1.86,0v-12a.93.93,0,0,0-1.86,0Z"/><path class="cls-3" d="M279.74,229v10a.93.93,0,0,0,1.86,0V229a.93.93,0,0,0-1.86,0Z"/><path class="cls-3" d="M320.73,229.11v10a.93.93,0,0,0,1.86,0v-10a.93.93,0,0,0-1.86,0Z"/><path class="cls-3" d="M291.15,229.11v10a.93.93,0,0,0,1.86,0v-10a.93.93,0,0,0-1.86,0Z"/><path class="cls-3" d="M312,229.11v10a.93.93,0,0,0,1.86,0v-10a.93.93,0,0,0-1.86,0Z"/><path class="cls-3" d="M301.57,229.11v10a.93.93,0,0,0,1.86,0v-10a.93.93,0,0,0-1.86,0Z"/><path class="cls-3" d="M169.67,194.93l4.93,7.4a.94.94,0,0,0,1.6,0L184.41,191c.7-1-.91-1.9-1.6-.94l-8.21,11.37h1.6l-4.93-7.4c-.66-1-2.27-.06-1.6.94Z"/><path class="cls-1" d="M421.91,202.75c7,1.59,14.76-1,18.27-7.49.57-1-1-2-1.6-.94-3.11,5.75-9.95,8.05-16.18,6.64-1.16-.26-1.66,1.53-.49,1.79Z"/><path class="cls-1" d="M445,199.84c-2.08,4-6.76,6.11-11,6.51-1.18.11-1.19,2,0,1.86,4.89-.46,10.22-2.88,12.62-7.43.55-1.06-1.05-2-1.61-.94Z"/><path class="cls-1" d="M436.8,101.09c5.86,3.32,13.31,2.12,18.59-1.66,1-.69,0-2.31-.94-1.61-4.74,3.4-11.41,4.67-16.71,1.67a.93.93,0,0,0-.94,1.6Z"/><path class="cls-2" d="M396.42,73.5l2.21-14.07c.54-3.43.76-7.11,1.84-10.43,1.23-3.76,3.9-7,8-7.38,1.18-.12,1.19-2,0-1.86-5.78.61-9.39,5.44-10.36,10.9-.93,5.23-1.65,10.52-2.48,15.77l-1,6.57c-.18,1.17,1.61,1.68,1.79.5Z"/><path class="cls-2" d="M344.83,99.49,347,85.42c.54-3.42.76-7.1,1.84-10.42,1.23-3.76,3.9-7,8-7.39,1.18-.12,1.19-2,0-1.85-5.78.6-9.39,5.44-10.36,10.89-.93,5.24-1.65,10.52-2.48,15.78L343,99c-.18,1.17,1.61,1.67,1.79.49Z"/><path class="cls-3" d="M255.34,50.18h13.31c4.39,0,9.58-.62,13.28,2.18.95.72,1.88-.89.94-1.6-3.85-2.92-9-2.44-13.57-2.44h-14a.93.93,0,0,0,0,1.86Z"/><path class="cls-1" d="M258.07,40.47H272.3a.93.93,0,0,0,0-1.86H258.07a.93.93,0,0,0,0,1.86Z"/><path class="cls-1" d="M164.67,24.37v5.07a.93.93,0,0,0,1.86,0V24.37a.93.93,0,0,0-1.86,0Z"/><path class="cls-1" d="M164.67,15.31v5.48a.93.93,0,0,0,1.86,0V15.31a.93.93,0,0,0-1.86,0Z"/><path class="cls-1" d="M164.67,5.2V11a.93.93,0,0,0,1.86,0V5.2a.93.93,0,0,0-1.86,0Z"/><path class="cls-3" d="M67.4,106.55c-6.52-5.8-16.55-7.06-24.83-5.83-1.17.17-.67,2,.5,1.79,7.57-1.13,17,0,23,5.35.89.79,2.21-.52,1.32-1.31Z"/><path class="cls-1" d="M206.28,226.55v3.56a.93.93,0,0,0,1.86,0v-3.56a.93.93,0,0,0-1.86,0Z"/><path class="cls-1" d="M206.28,216.23v5.29a.93.93,0,0,0,1.86,0v-5.29a.93.93,0,0,0-1.86,0Z"/><path class="cls-3" d="M206.28,192.38v18.48a.93.93,0,0,0,1.86,0V192.38a.93.93,0,0,0-1.86,0Z"/><path class="cls-3" d="M172.37,62.45,170.5,51.31l-.43,1c7.58-4.14,6.63-15.83-2-18.11-9-2.37-15.69,8.2-10.17,15.47.71.94,2.32,0,1.6-.94a8.08,8.08,0,0,1-.46-9.56A8,8,0,0,1,167.62,36c7,1.87,7.69,11.35,1.51,14.72a1,1,0,0,0-.42,1.05L170.58,63c.2,1.17,2,.67,1.79-.5Z"/><path class="cls-3" d="M265.19,74.63h-18.8l.93.93V69.68l-.93.93h18.8l-.93-.93v5.88a.93.93,0,0,0,1.86,0V69.68a1,1,0,0,0-.93-.93h-18.8a1,1,0,0,0-.93.93v5.88a1,1,0,0,0,.93.93h18.8A.93.93,0,0,0,265.19,74.63Z"/><path class="cls-1" d="M315.62,40.2l12.44,10.85c.89.79,2.21-.52,1.31-1.31L316.94,38.89c-.9-.79-2.22.52-1.32,1.31Z"/><path class="cls-1" d="M348.24,219.12a3.79,3.79,0,0,1,0-7.58c1.19-.06,1.2-1.92,0-1.86a5.65,5.65,0,0,0,0,11.29c1.2.07,1.19-1.79,0-1.85Z"/><path class="cls-2" d="M378.11,87.53,363.59,96.1a.93.93,0,0,0,.93,1.61l14.53-8.58a.93.93,0,0,0-.94-1.6Z"/><path class="cls-3" d="M370.41,189.91h40.06c5.53,0,11.13.26,16.65,0a4.56,4.56,0,0,0,2.38-.73c1.76-1.19,1.27-3.27-.54-4.06s-4.34-.54-6.28-.64l-22.93-1.11.89.68-4-29.35a.94.94,0,0,0-.9-.68H370.41a.93.93,0,0,0,0,1.86h25.33l-.89-.68,4,29.35a.94.94,0,0,0,.9.68l18.63.9c2.82.14,5.67.18,8.48.41,1,.09,2.76.6,1,1.37-.58.26-.35.15-1.09.14-13.75-.22-27.52,0-41.27,0H370.41a.93.93,0,0,0,0,1.86Z"/><path class="cls-3" d="M370.91,188.05H315.47c-.49,0-1,0-1.47,0h-.1c.39,0-.15,0-.32-.1-1.47-.57-.76-1.21.45-1.38,2-.29,4.1-.2,6.1-.3l21.44-1a.94.94,0,0,0,.9-.68l4-29.35-.89.68h25.33a.93.93,0,0,0,0-1.86H345.58a1,1,0,0,0-.9.68l-4,29.35.89-.68-20.16,1c-2.44.12-4.92.11-7.35.36-1.37.14-3.15.7-3.36,2.29-.22,1.75,1.69,2.76,3.19,2.91,1.31.13,2.7,0,4,0h53a.93.93,0,0,0,0-1.86Z"/><path class="cls-2" d="M153.09,62.45a7.1,7.1,0,0,1-4.25,4.24c-4.65,1.86-10.09,0-14.85-.55-4.35-.51-8.59-.12-12.28,2.43-4.55,3.15-7.95,8.29-11,12.85A34.13,34.13,0,0,0,107,88.08a1,1,0,0,0,.43,1,67,67,0,0,0,17,9.49c2.91,1,6.84,2,9.64.16,3.79-2.57,2.85-7.45.79-10.79-3.73-6-10.24-10.51-16.4-13.79-1-.56-2,1-.94,1.61,5.24,2.78,10.39,6.31,14.17,10.94,2.16,2.64,5.4,8.31,1,10.68-2.64,1.43-6.47-.05-9-1.05a62.49,62.49,0,0,1-10-5.23c-1.84-1.14-3.67-2.34-5.41-3.62l.42,1a35.84,35.84,0,0,1,3.09-5.49c1.56-2.4,3.26-4.71,5-7a25.94,25.94,0,0,1,6.57-6.48C132,64.49,142,72.42,150.52,68a8.67,8.67,0,0,0,4.36-5,.93.93,0,0,0-1.79-.5Z"/></g></g></svg>